<?xml version="1.0" encoding="utf-8"?>
<!-- Generator: Adobe Illustrator 23.0.6, SVG Export Plug-In . SVG Version: 6.00 Build 0)  -->
<svg version="1.1" id="Layer_1" xmlns="http://www.w3.org/2000/svg" xmlns:xlink="http://www.w3.org/1999/xlink" x="0px" y="0px"
	 viewBox="0 0 864 864" enable-background="new 0 0 864 864" xml:space="preserve">
<g>
	<path d="M438.865,528.0472c4.0345,3.532,9.5443,5.312,16.4172,5.312c1.2769,0,2.6023-0.0619,3.9726-0.1848
		c7.255-0.652,12.7033-3.9083,16.1927-9.6778c8.6853-14.362,2.7856-40.4555-1.2392-50.1537
		c-5.7033-13.7438-40.8865-68.9608-41.2415-69.517l-0.4174-0.6549l-0.4174,0.6549c-0.355,0.5562-35.5378,55.7732-41.241,69.517
		c-4.0268,9.703-9.9289,35.8072-1.2368,50.1681c3.4899,5.7657,8.9373,9.0171,16.1908,9.6633
		c8.6083,0.7662,15.4445-0.9403,20.3216-5.075c4.0413-3.4255,5.7884-7.7062,6.5338-10.4788
		C433.3571,520.3825,434.962,524.6313,438.865,528.0472z M420.5965,499.6633c-12.8011-1.1408-9.098-20.3035-6.519-26.5186
		c2.5791-6.215,18.4718-31.1325,18.4718-31.1325s15.8928,24.9175,18.4718,31.1325c2.5791,6.215,6.2813,25.3686-6.519,26.5186
		c-11.4739,1.0308-11.8656-8.0458-11.8656-8.0458S431.951,500.6752,420.5965,499.6633z"/>
	
		<ellipse transform="matrix(0.9732 -0.2298 0.2298 0.9732 -113.3419 165.1662)" cx="652.5973" cy="569.3041" rx="8.3894" ry="8.3894"/>
	<circle cx="670.637" cy="558.9027" r="5.3892"/>
	<circle cx="636.8403" cy="584.5135" r="5.3892"/>
	<path d="M609.9894,527.4825c1.256-1.2017,2.3931-2.4819,3.0881-4.1597c0.0665-0.1615,0.0459-0.3539-0.0709-0.5
		c-0.1711-0.2142-0.4836-0.249-0.6978-0.0779l-0.0767,0.0612c-0.5421,0.4333-1.2021,0.8677-1.8613,1.201
		c-0.6522,0.3582-1.3339,0.6583-2.026,0.9164c-1.3759,0.5323-2.7954,0.9105-4.2359,1.1725
		c-1.4283,0.2924-2.8826,0.4629-4.3429,0.5465c-1.4523,0.1195-2.9224,0.1273-4.3876,0.1111
		c-5.848-0.1093-11.8179-1.0089-17.6097-2.1736c-5.7979-1.2213-11.6602-2.6526-17.6136-4.2044
		c-2.9717-0.7874-5.9421-1.6617-8.9105-2.5955c-2.9578-0.9623-5.9135-1.9814-8.8745-3.0311
		c-5.9371-2.0666-11.8684-4.3043-18.1393-6.0158c-3.1535-0.8276-6.3552-1.6164-9.8787-1.8097
		c-1.7981-0.075-3.5577,0.0081-5.3112,0.3648c-1.7502,0.3392-3.4837,0.9185-5.0878,1.7799c-3.218,1.6907-5.8666,4.6125-6.999,8.0893
		c-1.1677,3.4373-0.8065,7.4349,1.2498,10.4485c1.0078,1.5031,2.3971,2.7126,3.9349,3.5373
		c1.5381,0.8345,3.2097,1.3074,4.8696,1.4999c3.3341,0.3904,6.5845-0.1871,9.6371-1.0966c0.2404-0.0726,0.3939-0.3174,0.3452-0.5693
		c-0.052-0.2688-0.312-0.4446-0.5809-0.3926l-0.005,0.001c-3.0372,0.5876-6.176,0.7927-9.0745,0.1456
		c-2.8815-0.6167-5.4781-2.2025-6.7664-4.5916c-1.3199-2.3572-1.3151-5.2949-0.2462-7.7241
		c1.0535-2.456,3.1209-4.3635,5.5668-5.3896c2.4342-1.035,5.3101-1.2959,8.002-0.914c2.7546,0.4006,5.6457,1.3661,8.4905,2.4091
		c5.7046,2.1856,11.4252,4.7474,17.2013,7.287l8.7343,3.7899c2.9255,1.2765,5.8809,2.5284,8.8849,3.72
		c5.9912,2.4073,12.3021,4.3434,18.9279,5.1889c3.3233,0.4554,6.6359,0.5991,9.9763,0.5509
		c3.3398-0.0623,6.7084-0.376,10.0369-1.0918c3.3263-0.6721,6.611-1.8251,9.6407-3.4753
		C607.2828,529.6429,608.7151,528.651,609.9894,527.4825z"/>
	<path d="M653.1529,471.2884c-2.4053,1.7388-4.2795,3.9852-5.6368,6.4153c-1.3785,2.4273-2.2181,5.0813-2.5805,7.8183
		c-0.2909,2.7408-0.1584,5.636,1.0264,8.4147c0.5854,1.3741,1.4222,2.7138,2.554,3.795l0.4203,0.4018l0.3992,0.3273
		c0.2662,0.2171,0.528,0.4352,0.819,0.6292c0.5588,0.4056,1.1575,0.7696,1.7785,1.0924c2.4772,1.3047,5.4942,1.7757,8.1946,1.0571
		c2.6899-0.6855,5.0637-2.4099,6.3229-4.781c0.6166-1.1777,1.0061-2.4761,0.9926-3.7671c0.0017-1.2854-0.2957-2.5245-0.8329-3.5985
		c-0.0984-0.193-0.3172-0.3101-0.5406-0.2675c-0.2714,0.0516-0.4495,0.3134-0.3979,0.5847c0.3888,2.1244-0.1959,4.1698-1.452,5.5513
		c-1.2579,1.3851-3.0413,2.167-4.7837,2.234c-1.7494,0.0508-3.3993-0.5202-4.7523-1.5643
		c-0.3383-0.2628-0.6633-0.5469-0.9662-0.8644c-0.1582-0.1458-0.2998-0.3207-0.4441-0.4882l-0.2168-0.2492l-0.1403-0.2287
		c-0.3699-0.5949-0.6464-1.2582-0.8016-2.0056c-0.6313-3.0281,0.5444-6.8742,2.5833-9.6026
		c0.4988-0.7007,1.0808-1.3189,1.6858-1.871c0.5945-0.5671,1.2463-1.0325,1.9131-1.4195c1.3392-0.7753,2.7559-1.1878,4.2299-1.2714
		c0.7393-0.0357,1.4959,0.0182,2.2698,0.1232c0.8565,0.1238,1.8356,0.3209,2.7057,0.5623c1.7791,0.4893,3.4546,1.1347,4.9836,1.9761
		c1.5112,0.8665,2.892,1.8844,4.0825,3.0956c1.1612,1.231,2.1993,2.5959,2.9613,4.1442c0.7716,1.538,1.3405,3.2138,1.639,4.9733
		c0.1511,0.8792,0.2252,1.7778,0.2477,2.6835c0.0144,0.4533-0.0022,0.9079-0.0184,1.3643c-0.034,0.4735-0.0607,0.9631-0.1215,1.4422
		c-0.4197,3.8593-1.6837,7.6458-3.7565,10.9992c-4.1107,6.7816-11.2596,11.6858-19.1696,14.8076
		c-3.9632,1.592-8.1328,2.8245-12.4007,3.7506c-2.1365,0.4557-4.293,0.8535-6.4678,1.1846
		c-2.1866,0.3314-4.3173,0.5696-6.676,0.8936c-4.6047,0.6803-9.1969,1.8079-13.554,3.6563c-4.3455,1.8311-8.46,4.484-11.6534,8.0524
		c-3.2004,3.5579-5.3348,7.9867-6.238,12.5659c-0.8716,4.5974-0.7603,9.2687,0.3542,13.7585
		c0.0617,0.2452,0.3019,0.4093,0.5566,0.3693c0.2697-0.0424,0.4539-0.2955,0.4115-0.5652l-0.0068-0.043
		c-1.363-8.664,0.9559-18.099,7.1451-23.9592c3.0473-2.9471,6.841-5.0375,10.8855-6.4125c4.049-1.3898,8.3395-2.1242,12.6689-2.4625
		c2.1147-0.1608,4.4717-0.282,6.7529-0.4862c2.2936-0.2065,4.5869-0.4849,6.8788-0.8292c4.5801-0.7092,9.1558-1.7351,13.6417-3.2481
		c4.4783-1.5143,8.8682-3.5577,12.9327-6.2823c4.071-2.701,7.7552-6.2087,10.6328-10.3749c2.8792-4.1642,4.8866-8.9832,5.84-14.0163
		c1.0234-5.0652,0.6924-10.8422-1.5222-15.9372c-2.1522-5.1288-6.2086-9.5453-11.0787-12.1428
		c-1.2119-0.6566-2.4606-1.2184-3.7282-1.7022c-1.2717-0.4596-2.5687-0.8384-3.8665-1.1095
		c-1.3162-0.2891-2.5574-0.4846-3.9352-0.6177c-1.4617-0.1417-2.9667-0.1202-4.465,0.0897
		C658.4643,468.3444,655.5239,469.5162,653.1529,471.2884z"/>
	<path d="M561.4298,704.7866c2.4301,0.7817,5.8246,1.3505,9.4949,0.3686c4.8583-1.3011,8.8459-4.8737,11.8525-10.6191
		c0.8871-1.6968,0.2312-3.7922-1.4646-4.6803c-0.0004-0.0002-0.0007-0.0002-0.001-0.0004c-0.0104-0.2508-0.0426-0.5035-0.1103-0.756
		c-4.9956-18.6485-1.9735-39.2357-1.9425-39.4407c0.0414-0.274,0.0408-0.5433,0.0187-0.808
		c0.6331-1.0135,0.7372-2.3197,0.1379-3.4524c-2.848-5.3865-6.6663-8.6447-11.3505-9.6817
		c-4.005-0.8871-7.7643,0.1132-10.4333,1.2673c-1.9996-4.2623-4.9443-7.1036-8.7888-8.4705
		c-7.0881-2.5191-15.0333,1.0641-18.8052,3.1798c-5.251-3.7119-10.7603-5.2036-16.4109-4.4403
		c-7.9907,1.0806-14.1307,6.4922-17.3134,9.9477c-9.6508-6.9236-21.5942-3.5445-28.812,0.4653
		c-3.6355-4.8708-8.0971-7.6782-13.3017-8.3583c-8.6737-1.1338-16.9014,4.184-21.0128,7.4363
		c-4.0263-3.8967-8.6456-5.9959-13.7728-6.2542c-8.2316-0.4024-15.6283,4.1763-19.5898,7.2419
		c-3.3839-4.0389-7.4596-6.4177-12.1563-7.0862c-7.3696-1.0467-14.3349,2.5327-18.3031,5.1639
		c-3.2069-4.9066-7.4044-8.0912-12.5181-9.4863c-9.256-2.5269-18.7781,1.723-22.9437,3.9934
		c-4.4316-3.0347-8.8817-4.0427-13.261-3.0096c-5.6399,1.336-9.6536,5.8721-11.9677,9.3015
		c-2.8122-1.959-5.5325-2.3972-7.5786-2.372c-8.4444,0.1722-15.0468,8.5933-15.7724,9.554
		c-1.0323,1.366-0.8893,3.2426,0.2458,4.4503c0.2366,1.6432,2.4342,18.149-1.0313,40.08c-0.0844,0.5341-0.0304,1.0542,0.1166,1.5392
		c-0.0285,0.2188-0.0392,0.4428-0.0247,0.6713c0.3367,5.2675,3.9334,10.6124,8.9513,13.2979
		c3.0482,1.6329,6.2784,2.1486,9.4166,1.5633c0.6723,3.2775,2.2598,7.5109,5.9862,10.4769
		c4.0959,3.261,9.6537,4.1985,16.5551,2.8025c4.006,5.9272,16.3596,19.9245,39.194,10.7285
		c6.7031,4.1704,20.0009,7.8833,33.2978-1.3873c3.6045,2.7861,11.0651,7.5264,19.6159,7.1326
		c5.311-0.2477,10.1296-2.3914,14.359-6.3839c3.9479,2.7145,11.8158,7.1026,20.5117,6.2881
		c5.3497-0.504,10.1161-2.8577,14.2081-7.0078c3.8986,2.9738,11.4191,7.7836,19.2744,7.7836c0.9181,0,1.84-0.0658,2.761-0.207
		c4.7161-0.7265,8.6853-3.2552,11.8341-7.5302c5.6312,2.6807,18.1783,7.5583,27.8078,3.2911
		c4.8892-2.166,8.2935-6.2455,10.147-12.1466C545.5597,718.8255,556.1575,715.4609,561.4298,704.7866z M575.7985,692.7855
		c-1.8868,3.0625-4.1039,4.9642-6.6073,5.655c-3.9983,1.1019-7.743-1.1541-7.7585-1.1638l-0.0905-0.0574
		c0.0029-0.2598-0.0157-0.5225-0.074-0.7871c-1.2263-5.5695-1.9351-12.482-2.3288-19.4509
		c4.6914-1.1343,8.9792-2.3464,12.7343-3.6401c0.3988,5.5863,1.2405,11.6199,2.8294,17.5517
		C574.7151,691.6844,575.1862,692.3353,575.7985,692.7855z M558.8309,644.1197c1.5118-0.8761,4.6168-2.3244,7.7348-1.6333
		c2.3466,0.5202,4.4114,2.2624,6.1534,5.1622c-0.1447,0.3015-0.2621,0.6202-0.3151,0.9682
		c-0.0779,0.512-1.1343,7.6788-1.0267,17.4686c-3.6378,1.364-7.9433,2.6396-12.7379,3.8328
		C558.28,657.6536,558.7194,646.6084,558.8309,644.1197z M303.1273,698.1573c-2.5519,1.0118-4.78,0.3586-6.2734-0.4414
		c-2.8896-1.5469-5.1204-4.7538-5.3033-7.626c-0.0174-0.2727-0.0733-0.5323-0.1491-0.7831c0.985-6.2587,1.5318-12.0636,1.802-17.249
		c2.4855,0.815,6.4887,2.0767,11.7765,3.5787c-0.3911,6.7472-1.008,13.9754-1.9686,21.0771
		C302.9438,697.2145,302.9926,697.7022,303.1273,698.1573z M305.3216,668.5251c-6.143-1.7761-10.2629-3.1448-11.9016-3.7057
		c0.0773-10.6529-0.9519-17.3616-1.0228-17.8095c-0.0347-0.2177-0.0935-0.425-0.1652-0.6251
		c2.0823-2.1899,5.6417-5.1539,9.0188-5.215c0.0329-0.001,0.0668-0.001,0.1006-0.001c1.4604,0,2.8333,0.5776,4.1599,1.755
		c-0.0289,0.2034-0.0469,0.4103-0.0387,0.6229C305.4785,643.7164,305.865,654.3478,305.3216,668.5251z M324.6037,711.7383
		c-0.002,0.011-0.0009,0.0218-0.0028,0.0329c-4.9821,1.089-8.7769,0.6619-11.2703-1.306c-4.0331-3.1808-3.8841-9.6643-3.8831-9.7146
		l0.0785-1.9915c0.1756-0.3416,0.3033-0.7145,0.3578-1.1168c0.9154-6.768,1.5248-13.6449,1.9276-20.1328
		c5.1054,1.3522,11.0014,2.8084,17.5629,4.2581C328.2972,690.254,326.7666,700.1769,324.6037,711.7383z M312.1804,670.4379
		c0.5563-13.0699,0.3281-23.4914,0.2456-26.3637l0.2478-0.5498c1.0119-2.2482,4.7083-8.3322,9.5859-9.4747
		c2.698-0.6321,5.6696,0.3282,8.8408,2.8239c-0.1643,0.5449-0.2119,1.1323-0.083,1.7277c0.0288,0.1309,2.0132,9.9411-0.8296,36.2531
		C323.3911,673.341,317.3369,671.8245,312.1804,670.4379z M330.9061,714.2701c0.244-0.3722,0.427-0.792,0.5138-1.2567
		c2.1366-11.4203,3.6655-21.2851,4.7567-29.798c7.5216,1.5405,15.7582,3.0286,24.5601,4.3242
		c-0.1789,10.2856,0.0276,21.978,0.9365,34.7066c0.0208,0.2906,0.0879,0.5647,0.1747,0.8296
		C342.6565,730.6046,333.2699,718.1425,330.9061,714.2701z M364.4584,642.6276c-0.1641,0.8926-2.7278,15.2175-3.538,37.9358
		c-8.5773-1.2789-16.6016-2.7401-23.9197-4.2491c3.0747-27.9682,0.9207-38.6003,0.7943-39.1835
		c-0.0667-0.3073-0.1842-0.5875-0.3222-0.8537c3.4087-1.8176,10.8699-5.0977,17.5747-3.2568
		c4.0941,1.1254,7.2762,3.9918,9.7254,8.7031C364.6338,642.0056,364.5177,642.3026,364.4584,642.6276z M368.2816,723.4113
		c0.2275-0.506,0.3509-1.0665,0.3086-1.6585c-0.8645-12.1066-1.0676-23.314-0.9072-33.2499
		c8.039,1.0504,16.4822,1.9223,25.2257,2.517c0.0379,9.4433,0.4321,19.5291,1.4403,29.4628
		c0.0492,0.4828,0.2017,0.9279,0.4232,1.327C382.617,730.82,371.6444,725.4775,368.2816,723.4113z M395.358,644.2857
		c-0.032,0.2579-2.1087,17.475-2.4148,39.7885c-8.7015-0.6005-17.101-1.4775-25.0851-2.5339
		c0.7903-22.9087,3.3815-37.4491,3.4214-37.6647c0.057-0.3126,0.0555-0.6196,0.0292-0.9216
		c2.1624-1.6722,8.9077-6.3674,15.3824-5.4429c3.4302,0.4876,6.3318,2.4772,8.8475,6.0336
		C395.4544,643.7805,395.3897,644.0266,395.358,644.2857z M428.0424,722.5896c0.0037,0.0955,0.0271,0.1847,0.0383,0.278
		c-3.2383,3.3895-6.7552,5.1559-10.7223,5.3493c-7.6425,0.3614-14.6257-5.2288-16.3766-6.7496
		c0.2177-0.5172,0.3273-1.0876,0.2666-1.6851c-0.9693-9.5501-1.3553-19.2455-1.4034-28.3553
		c5.8945,0.2938,11.9045,0.4575,18.0029,0.4575c3.3888,0,6.8124-0.0703,10.2494-0.1747
		C427.8933,704.6008,427.8085,716.5947,428.0424,722.5896z M429.1956,643.1771c-0.0411,1.4557-0.6097,21.5233-0.9794,41.6084
		c-9.6583,0.3033-19.1478,0.167-28.3448-0.2979c0.2839-22.0294,2.3376-39.1004,2.3686-39.3544
		c0.0165-0.1342,0.0077-0.2646,0.0088-0.3968c2.0205-1.8026,9.2605-7.7188,16.8442-7.3201
		c3.7858,0.1986,7.1224,1.9299,10.1687,5.2502C429.2318,642.8341,429.2006,643.0015,429.1956,643.1771z M436.1232,643.3088
		c3.1524-2.8094,10.5398-8.0021,17.1779-7.125c3.6931,0.4828,6.8059,2.7549,9.4987,6.8865
		c-0.7964,0.7463-1.2328,1.8524-1.0678,3.0148c0.0327,0.235,2.1219,15.3282,2.5621,36.4686
		c-13.6663,1.0578-24.4032,1.6794-29.1322,1.9342c0.3791-20.4152,0.9556-40.7565,0.9661-41.1135
		C436.1285,643.352,436.123,643.3311,436.1232,643.3088z M462.8476,721.9955c-3.2032,3.7175-6.7914,5.7468-10.9473,6.147
		c-7.3241,0.7003-14.3394-3.8707-16.9314-5.7924c-0.0003-0.0107,0.0023-0.0206,0.0019-0.0314
		c-0.2289-5.8703-0.138-17.9215,0.0702-30.8773c4.5428-0.2347,15.3894-0.8391,29.3323-1.9039
		C464.3932,699.5898,463.9959,710.6719,462.8476,721.9955z M493.0311,643.4337c-0.0363,0.3272-0.0428,0.6614,0.0193,1.002
		c0.0466,0.2567,2.8304,15.792,4.0937,35.1343c-9.0352,0.9559-17.8547,1.7625-25.9291,2.4302
		c-0.462-21.0726-2.5167-36.1607-2.6138-36.8562C469.8698,644.2791,483.2746,635.5121,493.0311,643.4337z M496.6379,721.3882
		l-0.2683,0.4749c-2.314,4.0979-5.1436,6.3548-8.6485,6.8995c-6.4721,1.0076-14.2592-4.1047-17.876-7.085
		c1.1144-11.4194,1.4934-22.5752,1.458-32.6879c8.1432-0.6663,17.0575-1.4758,26.2179-2.4432
		c0.4602,10.9289,0.3212,22.5856-1.104,33.1216C496.3351,720.2736,496.4296,720.857,496.6379,721.3882z M499.9485,643.6196
		c1.46-1.8542,7.1678-8.5067,14.6429-9.5002c3.988-0.524,7.9969,0.6984,11.9274,3.6092c-0.0011,0.0264-0.0086,0.0509-0.0091,0.0775
		c-0.0201,1.1533-0.2861,18.2843,0.8794,37.9968c-7.6074,1.1204-15.4871,2.1205-23.3109,3.0076
		C502.899,660.9045,500.4382,646.3924,499.9485,643.6196z M532.4911,715.0362c-1.1193,5.1669-3.3724,8.4366-6.8869,9.999
		c-6.7807,3.0131-17.3062-0.8598-22.6049-3.4774c0.136-0.3001,0.2434-0.6177,0.29-0.961
		c1.515-11.2029,1.6575-23.4379,1.1691-34.8083c7.8281-0.8868,15.7349-1.8895,23.399-3.0176
		c0.7901,10.4535,2.0182,21.1823,3.9207,30.3121c0.1273,0.6099,0.4083,1.1483,0.793,1.5843L532.4911,715.0362z M533.4421,637.9251
		c0.001-0.0599-0.0126-0.1159-0.0146-0.1751c2.7841-1.5667,8.61-4.2993,13.0928-2.7029c2.5393,0.9028,4.4389,3.2906,5.6722,7.0668
		c-0.1414,0.3502-0.241,0.7229-0.2616,1.1212c-0.045,0.8719-0.6903,13.8472-0.1923,28.2749
		c-5.4283,1.1635-11.3023,2.2393-17.4421,3.2297C533.1743,655.1835,533.4374,638.2026,533.4421,637.9251z M538.6283,712.2488
		c-0.0073-0.1923-0.0206-0.3855-0.061-0.5801c-1.8556-8.9037-3.0493-19.5566-3.8152-29.9607
		c6.0531-0.9741,11.8846-2.0309,17.3228-3.1772c0.4297,6.8928,1.1744,13.7292,2.4216,19.3931
		c0.1981,0.9008,0.7369,1.6323,1.4446,2.1127C552.1244,709.8914,543.0634,711.882,538.6283,712.2488z"/>
	<path d="M748.0931,528.6023c-44.5791-0.3552-42.7917,45.4814-24.1874,53.0015c16.3434,6.6063,20.8945-7.3312,20.8945-7.3312
		c-12.1677,4.8746-19.1552-10.2045-17.6512-17.9056c3.2942-16.8688,53.5677-27.7647,47.671,19.1227
		c-4.0599,32.283-54.5309,36.9637-104.5369,30.2215c0.8658-1.844,1.7451-3.6943,2.6221-5.5365
		c6.1343-12.8867,12.4785-26.2125,13.3675-36.6855c0.9343-11.0173,0.3492-16.5743-0.8593-19.6636
		c10.464-6.1819,21.127-18.3501,32.7446-44.9594c13.8599-31.7431,12.2056-35.8623-5.6631-49.979
		c-1.8768-1.4825-3.9176-3.0966-6.1262-4.912c3.5489-11.7839,14.9935-53.9948,15.4209-109.4921
		c0.2902-37.8141-4.6658-73.8708-14.7296-107.1695c-12.6052-41.7078-33.2939-79.1595-61.4935-111.3153
		c-52.8469-60.2644-120.728-94.042-196.3039-97.6813c-76.5781-3.6858-155.1223,24.9564-210.0742,76.6259
		c-54.2312,50.9919-76.0107,120.8431-84.7317,170.4618c-10.6791,60.7602-7.3309,126.0729,8.9571,174.7115
		c0.1575,0.47,0.3964,0.8846,0.6682,1.2698c-2.5721,2.1365-4.923,3.9956-7.0617,5.6853
		c-17.8683,14.1167-19.523,18.2359-5.6636,49.979c8.9269,20.4449,17.2899,32.3623,25.4319,39.5926
		c-1.4465,2.8965-2.2471,8.4132-1.2224,20.4866c0.8885,10.473,7.2323,23.7989,13.367,36.6855
		c1.8783,3.9457,3.7747,7.9318,5.4978,11.8011c-50.2384,6.8832-101.1718,2.3102-105.2511-30.1265
		c-5.8966-46.8874,44.3768-35.9915,47.6711-19.1227c1.5039,7.7011-5.4837,22.7803-17.6513,17.9056
		c0,0,4.5511,13.9374,20.8945,7.3312c18.6042-7.5201,20.3917-53.3567-24.1875-53.0015
		c-44.5791,0.3552-42.0148,42.6498-42.0288,50.4668c-0.0268,15.0425,20.5338,79.5992,104.4665,53.1511
		c0,0,9.0076,7.2514,21.8364,10.489c-1.9312,27.9984-2.2038,80.5874,47.8994,100.7378c0.6061,0.2438,1.2315,0.3589,1.8468,0.3589
		c0.3221,0,0.6385-0.0427,0.9507-0.1041c1.7503,4.6243,3.7405,9.1328,5.8503,13.4547
		c13.8987,28.4713,37.6002,51.1496,65.7143,65.4683c20.6986,10.5419,43.3167,16.8665,66.255,20.1419
		c29.3378,4.1891,59.4772,4.4542,88.7906-0.0658c42.204-6.5076,83.2853-25.1443,111.4199-57.9999
		c8.9522-10.4544,16.5093-22.0486,22.0886-34.6301c0.3004,0.0567,0.6049,0.0958,0.9144,0.0956c0.6153,0,1.2402-0.1151,1.8467-0.3589
		c53.8028-21.6396,49.5157-80.6819,47.4645-106.5118c14.1935-2.8324,24.4333-11.0755,24.4333-11.0755
		c83.9326,26.4481,104.4933-38.1085,104.4664-53.1511C790.108,571.2521,792.6723,528.9575,748.0931,528.6023z M197.8778,589.5575
		c-5.7545-12.0876-11.7045-24.5873-12.4412-33.2658c-0.6568-7.7433-0.4245-11.7011-0.149-13.6064
		c7.0902,3.8956,14.1017,5.1835,21.2702,6.498c6.3766,1.1686,12.9699,2.3778,19.9003,5.7705
		c23.47,11.4926,22.343,32.6776,22.2786,33.6363c-0.1106,1.4865,0.4623,2.8547,1.4353,3.8381
		c-8.5935,3.2104-17.89,6.0322-28.0644,8.2593c-5.7372,1.2559-11.6099,2.3908-17.5366,3.3824
		C202.5519,599.3871,200.2411,594.5218,197.8778,589.5575z M338.4601,819.1903c-7.7688-3.2478-15.2575-7.1032-22.3613-11.5297
		c8.0922-3.2301,20.6672-10.3885,27.8448-25.1862c4.5733,4.9702,9.2711,9.522,14.0148,13.6989
		c0.1714,10.4572-9.7836,19.4404-16.4206,24.2591C340.5095,820.0247,339.481,819.6171,338.4601,819.1903z M408.927,801.6948
		c2.5469,4.0997,5.3401,8.2283,8.3916,12.2782c-0.0169,2.1481-0.6477,3.794-1.9388,5.0082c-2.701,2.5396-7.8383,2.764-9.9358,2.6248
		c-4.4182-2.1188-9.0706-4.5503-13.866-7.3355C397.1434,813.0397,404.0337,809.7979,408.927,801.6948z M384.6474,810.0499
		c-5.7004-3.6339-11.5294-7.77-17.3417-12.4645c9.1519-0.2995,24.5042-2.8143,30.9088-15.6108
		c2.2092,4.6617,4.7863,9.6612,7.7494,14.78C399.8945,809.3411,388.852,810.2139,384.6474,810.0499z M414.8653,801.65
		c6.5426,1.3049,16.2089,1.5365,23.8556-5.3408c0.1232,4.6732,0.2253,9.3191,0.2934,13.7538
		c-6.6803,5.323-14.5211,2.7267-17.1513,1.6037C419.3618,808.3715,417.0302,805.0117,414.8653,801.65z M437.2738,790.7151
		c-8.5483,10.056-21.6863,6.4581-26.1718,4.822c-2.6315-4.4712-4.9695-8.8697-7.0239-13.0408
		c7.8485,2.5955,20.5888,3.8264,33.9748-7.144c0.1697,4.644,0.3376,9.5789,0.4879,14.5816
		C438.0536,790.0608,437.6071,790.3231,437.2738,790.7151z M437.4852,769.2615c-16.268,15.4102-31.3588,9.4444-36.5377,6.5984
		c-2.6738-5.9293-4.6929-11.1127-6.0986-14.9943c8.9412,3.0983,25.5713,5.6642,42.2697-8.4312
		c0.176,3.918,0.4283,9.7422,0.6944,16.5718C437.6992,769.0826,437.5877,769.1643,437.4852,769.2615z M395.3582,775.6912
		c-0.0503,0.1117-0.1079,0.2197-0.1415,0.3394c-5.0837,18.1302-29.7608,16.8422-33.9157,16.4916
		c-4.4283-3.8973-8.8152-8.1349-13.0962-12.7413c9.4664-0.7123,30.3483-4.0369,41.2135-19.311
		C390.6896,764.1724,392.6478,769.4658,395.3582,775.6912z M347.0247,822.5153c6.3195-5.0228,13.9442-12.8655,15.5742-22.3846
		c5.8218,4.804,11.6742,9.0562,17.4183,12.812c-1.0808,9.6424-7.6433,13.9223-12.3296,15.769
		C360.6943,827.0038,353.7901,824.953,347.0247,822.5153z M395.1704,833.7073c-6.7741-0.8463-13.5247-1.9553-20.2128-3.3558
		c4.1562-2.8401,8.1847-7.3607,9.618-14.5137c6.035,3.7175,11.9008,6.889,17.4337,9.5904
		C400.2393,831.3953,397.114,833.1812,395.1704,833.7073z M407.5434,834.9786c-1.6292-0.131-3.2584-0.279-4.8875-0.4377
		c1.4995-1.686,2.8557-3.9586,3.8538-6.9811c8.4374,3.868,15.9039,6.5938,21.7532,8.4634
		C421.338,835.8886,414.4228,835.5318,407.5434,834.9786z M413.9024,825.4236c1.7253-0.5973,3.4307-1.4867,4.8524-2.8174
		c1.1057-1.0349,1.9471-2.2385,2.5338-3.5945c3.9764,4.8216,8.3408,9.4554,13.1093,13.7071
		C429.3853,831.2861,422.2813,828.9688,413.9024,825.4236z M438.9986,830.1602c-4.3093-3.7232-8.2946-7.8036-11.9666-12.0839
		c3.743,0.3971,8.0124-0.0257,12.0522-2.167C439.1287,821.2633,439.109,826.1401,438.9986,830.1602z M442.0454,751.6848
		c8.4578,5.0718,28.1141,14.9844,43.3913,8.421c-1.4825,3.6265-3.5103,8.4316-5.98,13.9045
		c-14.9131,11.9634-31.0802,1.3258-36.6048-3.0748C442.5428,762.868,442.2425,756.0089,442.0454,751.6848z M485.0602,773.7223
		c2.6906-6.078,4.7789-11.1864,6.1205-14.5734c5.6621,7.4022,19.6205,22.407,38.0305,19.7905
		c-2.815,3.1721-6.8248,7.4208-11.9722,12.229C500.2407,795.9678,487.0889,776.8696,485.0602,773.7223z M510.789,796.9418
		c-4.0643,3.4865-8.6428,7.1378-13.7175,10.7984c-0.1525,0.0289-0.3046,0.064-0.4513,0.1221
		c-10.3957,4.1157-19.4827-7.3544-22.4145-11.613c3.1462-5.9736,5.9963-11.8594,8.4691-17.2382
		C486.9204,784.8382,497.1138,796.5243,510.789,796.9418z M443.0818,777.1368c7.0299,4.6406,19.7338,10.655,32.6194,4.96
		c-1.8098,3.7858-3.776,7.7375-5.8693,11.7236c-13.5714,6.9164-22.2841,2.5735-26.2331-0.5789
		C443.4457,787.7518,443.2664,782.2889,443.0818,777.1368z M466.0643,800.7664c-1.5424,2.7499-3.1364,5.4797-4.7765,8.1443
		c-0.6728-0.1238-1.3745,0.023-1.934,0.4434c-6.7091,5.0435-13.4506,1.2852-15.397-0.0178
		c-0.0511-3.2999-0.1202-6.7018-0.2029-10.1376C448.6094,801.9412,456.1023,804.0618,466.0643,800.7664z M443.8962,831.6312
		c0.1562-4.5634,0.1862-10.2836,0.1306-16.593c3.3275,1.5169,7.8335,2.4984,12.5272,1.1724
		C452.4944,822.1381,448.2352,827.4708,443.8962,831.6312z M460.9175,818.6173c0.9668,1.6236,2.2771,3.2534,4.0796,4.55
		c1.0824,0.776,2.2561,1.3619,3.5066,1.7794c-5.9641,2.9334-12.3116,5.6652-19.0279,8.0865
		C453.4231,828.9028,457.2608,823.9695,460.9175,818.6173z M457.8408,835.1214c5.7483-2.325,11.2205-4.8549,16.3878-7.5307
		c0.2935,1.7492,0.8988,3.6785,2.0828,5.3198C470.1891,833.886,464.0252,834.6066,457.8408,835.1214z M477.0717,820.4601
		c-0.3335-0.0758-0.6812-0.0945-1.0258-0.027c-3.3,0.6489-6.0384,0.2204-8.1385-1.2739c-0.036-0.0253-0.0707-0.0508-0.1058-0.0765
		c-1.9379-1.4249-3.0737-3.5474-3.7222-5.2611c2.6253-4.1227,5.1382-8.4124,7.51-12.7173
		c3.2917,4.3161,9.4125,10.8405,17.179,12.3229C485.0825,815.8192,481.18,818.1776,477.0717,820.4601z M491.9813,829.8475
		c-2.7848,0.6496-5.5844,1.2289-8.3912,1.7692c-1.2813-0.0584-2.2666-0.4552-2.9746-1.2415
		c-1.2052-1.34-1.5922-3.5868-1.6709-5.3073c6.1586-3.4019,11.8646-6.9753,17.1053-10.5803
		c1.3725,4.155,4.0916,9.032,8.6275,11.9458C500.4796,827.7109,496.2437,828.8532,491.9813,829.8475z M512.2508,823.9613
		c-8.0219-0.8688-10.9914-8.9364-11.9108-12.5037c6.6504-4.8226,12.4632-9.6249,17.4055-14.0692
		c1.2379,5.0959,4.4968,13.7167,12.7415,19.0793C524.5544,819.2891,518.4597,821.788,512.2508,823.9613z M535.858,813.8083
		c-11.1612-5.2563-13.4516-17.5063-13.8394-20.3709c6.0897-5.7916,10.5-10.6951,13.1468-13.8167
		c2.3732,6.0582,8.1036,16.563,20.4982,22.0942C549.3703,806.2067,542.743,810.2399,535.858,813.8083z M652.2849,671.0187
		c-2.4279-5.5319-5.9971-10.6205-10.6153-14.7125c-5.7025-4.9796-12.9351-8.3055-20.6859-9.1242
		c-3.8715-0.3334-7.889-0.0888-11.7202,1.1246c-1.9322,0.5422-3.7589,1.4172-5.5613,2.3981
		c-1.7313,1.0692-3.4031,2.2589-4.8477,3.6838c-2.95,2.7847-5.3142,6.1752-6.8547,9.9453
		c-1.5477,3.7529-2.4821,7.8658-2.2729,12.0886c0.0718,1.0525,0.1308,2.1086,0.3506,3.1545
		c0.0999,0.5228,0.1667,1.0528,0.3013,1.5699l0.444,1.5453l0.235,0.7697l0.3081,0.7463l0.6293,1.4895
		c0.48,0.9501,0.9803,1.8945,1.551,2.7831c2.3115,3.5348,5.3723,6.4169,8.8663,8.6147c3.4968,2.1764,7.5508,3.6148,11.8505,3.8341
		c1.0607,0.1061,2.1618-0.0342,3.2354-0.1044c0.5372-0.0213,1.0778-0.1896,1.6124-0.2836c0.5327-0.1302,1.0733-0.1893,1.5895-0.3884
		c1.0285-0.3947,2.0883-0.6841,3.0176-1.2807l1.408-0.8228c0.4521-0.3392,0.9131-0.6496,1.3297-1.0388
		c1.7094-1.4711,3.0389-3.4338,3.7103-5.5096c0.6783-2.0795,0.8296-4.2045,0.5929-6.2081
		c-0.2607-2.0043-0.8328-3.9162-1.7784-5.6437c-0.478-0.8593-1.027-1.6823-1.722-2.4061c-0.704-0.6899-1.5558-1.3887-2.6622-1.5032
		c-0.1606-0.0163-0.3223,0.067-0.3973,0.2205c-0.0961,0.1968-0.0145,0.4343,0.1824,0.5304l0.0495,0.0242
		c0.666,0.3251,1.1556,0.9878,1.5284,1.701c0.3815,0.7139,0.6514,1.5052,0.8458,2.3063c0.3873,1.6049,0.5146,3.2712,0.3344,4.8522
		c-0.1404,1.5795-0.5776,3.0748-1.2881,4.3069c-0.7148,1.2291-1.6322,2.2245-2.7921,2.9094
		c-0.2722,0.1888-0.5961,0.321-0.8881,0.4818l-1.0052,0.3676c-0.6337,0.3124-1.3568,0.3818-2.0229,0.567
		c-0.3331,0.0967-0.7048,0.0657-1.05,0.1108c-0.3547,0.0098-0.6894,0.1007-1.0527,0.0557c-0.7188-0.0648-1.4172-0.0261-2.1365-0.209
		c-2.8431-0.48-5.6904-1.6947-8.1522-3.5009c-0.6084-0.4608-1.2508-0.8708-1.8038-1.402l-0.8619-0.7495l-0.7914-0.8196
		c-1.0786-1.0698-1.9963-2.2654-2.8223-3.4937c-0.3764-0.6305-0.7528-1.2587-1.1-1.8956l-0.4412-0.9795l-0.2272-0.4881
		l-0.1649-0.515c-0.1081-0.344-0.2297-0.684-0.3526-1.0251c-0.1152-0.3436-0.1699-0.707-0.262-1.0597
		c-0.2042-0.7026-0.2728-1.439-0.3721-2.1724c-0.7197-5.898,1.4774-12.4527,5.7724-16.9801
		c4.2055-4.6281,10.7292-6.7401,17.2789-6.4456c6.5781,0.2843,13.1818,2.7755,18.5461,6.9261
		c5.7744,4.4166,10.1984,10.6212,12.8047,17.5806c-1.7685,22.6855-9.7087,47.7659-36.2709,61.1279
		c1.8276-5.6339,3.1006-11.5013,3.0061-17.2707c-0.0256-1.5628-0.1774-3.1541-0.539-4.6754
		c-1.4736-6.1996-11.028-3.5749-9.5522,2.6334c0.0455,0.1915,0.0804,0.3267,0.1071,0.4216
		c0.0005,0.0093,0.0005,0.0143,0.0012,0.0242c0.0417,0.6785,0.0786,1.3506,0.0767,2.0309c-0.002,0.6794-0.0394,1.3586-0.0887,2.0361
		c-0.0431,0.5925-0.1841,1.7057-0.2026,1.8992c-0.6699,4.351-1.8369,8.6187-3.261,12.7794
		c-3.9436,11.5217-10.2383,22.6082-17.6115,32.5935c-7.8053,10.5707-17.0364,19.7891-27.2772,27.7011
		c-17.8409-6.1667-21.6318-23.4334-21.7953-24.2234c-0.012-0.0594-0.0355-0.1144-0.0518-0.1723
		c-0.0202-0.0728-0.0381-0.1454-0.065-0.2164c-0.0294-0.0775-0.0676-0.15-0.1044-0.2238c-0.0329-0.0659-0.0625-0.1327-0.1014-0.1958
		c-0.0472-0.0765-0.1039-0.1457-0.1591-0.2166c-0.0411-0.0526-0.0769-0.1078-0.1226-0.1575
		c-0.0947-0.1031-0.1999-0.1965-0.3116-0.2828c-0.0142-0.0109-0.0248-0.025-0.0393-0.0356
		c-0.0016-0.0012-0.0035-0.0026-0.0051-0.0038c-0.0935-0.0687-0.1923-0.1312-0.296-0.187c-0.0205-0.011-0.0433-0.0153-0.064-0.0257
		c-0.1024-0.0514-0.2076-0.09-0.314-0.1261c-0.0563-0.0192-0.1106-0.0432-0.1678-0.0582c-0.1315-0.0343-0.2646-0.053-0.3984-0.0652
		c-0.0361-0.0034-0.0713-0.0132-0.1075-0.015c-0.1705-0.0081-0.3408,0.0018-0.5086,0.0285
		c-0.0422,0.0068-0.0827,0.0224-0.1246,0.0312c-0.1265,0.027-0.2513,0.0591-0.3727,0.1056
		c-0.0151,0.0059-0.0311,0.007-0.0461,0.0131c-24.3957,9.9186-41.797-18.3511-42.5244-19.5583
		c-0.0113-0.0188-0.0276-0.0333-0.0394-0.0518c-0.0778-0.1222-0.1648-0.2382-0.2635-0.3459
		c-0.0135-0.0148-0.0245-0.0317-0.0385-0.046c-0.0959-0.0996-0.1998-0.1925-0.313-0.2758
		c-0.0128-0.0094-0.0294-0.0139-0.0424-0.0229c-0.1709-0.1207-0.3539-0.2228-0.5507-0.2971
		c-0.0043-0.0016-0.0074-0.0048-0.0117-0.0063c-0.1635-0.0609-0.3293-0.1023-0.4952-0.1275
		c-0.0012-0.0001-0.0022-0.0007-0.0035-0.0009c-0.0134-0.0021-0.0269,0.0004-0.0403-0.0015
		c-0.1597-0.0214-0.3189-0.0274-0.4764-0.0176c-0.0537,0.0034-0.1052,0.0157-0.1583,0.0225
		c-0.1169,0.0149-0.2326,0.033-0.3456,0.0641c-0.062,0.0172-0.1207,0.041-0.1812,0.0628c-0.101,0.0366-0.1993,0.0765-0.2946,0.1256
		c-0.0593,0.0305-0.1158,0.0645-0.1727,0.0999c-0.0921,0.0573-0.1793,0.1204-0.2636,0.1896
		c-0.0292,0.024-0.0632,0.0403-0.0914,0.0657c-16.4853,14.8784-47.7916-6.8873-48.1057-7.1086
		c-0.035-0.0247-0.0735-0.0405-0.1093-0.0633c-0.0802-0.0507-0.1604-0.101-0.2464-0.1424
		c-0.0511-0.0246-0.1037-0.0421-0.1558-0.0629c-0.08-0.0321-0.1596-0.0639-0.2433-0.0876
		c-0.0591-0.0167-0.1189-0.0264-0.1787-0.0386c-0.0789-0.0161-0.1571-0.0327-0.2383-0.0411
		c-0.068-0.0071-0.1359-0.0065-0.2042-0.0078c-0.0577-0.0013-0.1138-0.0095-0.1724-0.0067
		c-0.0164,0.0009-0.0312,0.006-0.0475,0.0071c-0.1165,0.008-0.2311,0.0278-0.3454,0.0519
		c-0.0387,0.0082-0.0793,0.0106-0.1172,0.0206c-0.1458,0.0382-0.2881,0.0904-0.4259,0.1553
		c-0.0474,0.0225-0.0894,0.0526-0.135,0.0778c-0.0885,0.0487-0.1767,0.0977-0.2597,0.1577
		c-0.0526,0.0381-0.0987,0.0831-0.148,0.1251c-0.054,0.046-0.1116,0.0859-0.1623,0.1372
		c-19.2856,19.5114-38.6847,12.4802-44.8278,9.4577c-0.2343-0.7441-0.3591-1.17-0.3719-1.2145
		c-0.1569-0.5477-0.4864-0.9994-0.9123-1.3126c-0.5966-0.4387-1.383-0.6062-2.1504-0.3864c-1.0862,0.311-1.7824,1.3019-1.7839,2.378
		c-0.093,0.1153-0.1806,0.2361-0.2525,0.3682c-10.4532,19.2275-39.2562,20.3884-43.3567,20.4543
		c-0.1036-0.1196-0.2082-0.2359-0.3116-0.356c-0.8921-1.033-2.4558-1.1542-3.4929-0.2621
		c-1.0367,0.8924-1.1538,2.4561-0.2618,3.4926c0.1583,0.184,0.3185,0.3622,0.4772,0.5451
		c-7.2863,16.8856-22.7027,23.5997-29.4791,25.8098c-17.0799-11.6589-31.612-26.8041-41.8887-45.0582
		c-5.0331-8.9401-8.6198-17.3975-11.4538-27.2762c-0.9052-3.1553-1.6902-6.3474-2.3149-9.5704
		c-0.2145-1.1066-0.3916-2.218-0.582-3.3286c-0.03-0.1748-0.0525-0.3027-0.0719-0.4117c-0.0068-0.082-0.022-0.2269-0.053-0.4855
		c-0.0268-0.2235-0.0509-0.4476-0.0699-0.6719c-0.5329-6.3058-10.4438-6.3625-9.9061,0c0.418,4.9456,1.349,9.8918,2.6415,14.771
		c-23.9011-11.5496-33.1212-32.3992-36.2677-52.7946c2.4232-7.9588,7.1929-15.1215,13.6439-20.0555
		c5.3643-4.1506,11.968-6.6418,18.5461-6.9261c6.5497-0.2945,13.0734,1.8174,17.2789,6.4456
		c4.295,4.5274,6.4921,11.0821,5.7724,16.9801c-0.0993,0.7334-0.168,1.4697-0.3721,2.1724
		c-0.0921,0.3527-0.1468,0.7161-0.262,1.0597c-0.1229,0.3411-0.2445,0.6811-0.3526,1.0251l-0.1648,0.515l-0.2272,0.4881
		l-0.4411,0.9795c-0.3472,0.6368-0.7237,1.2651-1.1001,1.8956c-0.8259,1.2283-1.7437,2.424-2.8222,3.4937l-0.7914,0.8196
		l-0.8619,0.7495c-0.553,0.5312-1.1953,0.9412-1.8038,1.402c-2.4618,1.8062-5.3091,3.0208-8.1522,3.5009
		c-0.7192,0.1829-1.4177,0.1442-2.1364,0.209c-0.3633,0.045-0.698-0.0459-1.0527-0.0557c-0.3451-0.0451-0.7168-0.0142-1.05-0.1108
		c-0.6661-0.1852-1.3893-0.2546-2.0229-0.567l-1.0052-0.3676c-0.292-0.1608-0.6159-0.293-0.8881-0.4818
		c-1.1599-0.6849-2.0772-1.6804-2.7921-2.9094c-0.7106-1.2321-1.1477-2.7274-1.2881-4.3069
		c-0.1802-1.5809-0.0528-3.2473,0.3344-4.8522c0.1944-0.801,0.4643-1.5924,0.8457-2.3063c0.3728-0.7132,0.8624-1.3759,1.5284-1.701
		l0.0495-0.0242c0.1969-0.0961,0.2785-0.3336,0.1824-0.5304c-0.0749-0.1535-0.2366-0.2368-0.3972-0.2205
		c-1.1063,0.1146-1.9581,0.8133-2.6622,1.5032c-0.695,0.7239-1.244,1.5469-1.722,2.4061c-0.9456,1.7275-1.5177,3.6394-1.7784,5.6437
		c-0.2367,2.0036-0.0854,4.1285,0.5929,6.2081c0.6714,2.0759,2.0009,4.0385,3.7103,5.5096
		c0.4165,0.3892,0.8775,0.6996,1.3296,1.0388l1.4081,0.8228c0.9292,0.5966,1.9891,0.886,3.0175,1.2807
		c0.5163,0.1992,1.0569,0.2582,1.5896,0.3884c0.5345,0.0941,1.0752,0.2623,1.6124,0.2836c1.0736,0.0702,2.1747,0.2104,3.2354,0.1044
		c4.2997-0.2193,8.3537-1.6577,11.8505-3.8341c3.494-2.1978,6.5548-5.0799,8.8663-8.6147c0.5707-0.8885,1.0711-1.8329,1.551-2.7831
		l0.6293-1.4895l0.3081-0.7463l0.235-0.7697l0.444-1.5453c0.1346-0.5172,0.2015-1.0471,0.3014-1.5699
		c0.2198-1.0459,0.2788-2.102,0.3506-3.1545c0.2093-4.2228-0.7252-8.3357-2.2729-12.0886c-1.5405-3.77-3.9048-7.1605-6.8547-9.9453
		c-1.4446-1.4249-3.1165-2.6146-4.8477-3.6838c-1.8024-0.981-3.6291-1.8559-5.5613-2.3981
		c-3.8311-1.2134-7.8487-1.4581-11.7202-1.1246c-7.7507,0.8187-14.9834,4.1446-20.6858,9.1242
		c-5.4522,4.8309-9.4534,11.0455-11.8192,17.748c-1.1473-10.8298-0.7731-21.2806-0.1941-29.8646
		c12.9202,0.5947,27.9251-4.2444,41.2438-22.7194c0,0,34.5297,20.4938,60.9689-12.0148c0,0,46.9178,15.0966,56.7849-20.2338
		c0,0,17.7579,42.2474,54.2668,7.1841c5.3754-5.1625,21.5225-40.0389-26.8858-57.6184
		c-53.1079-19.2863-77.1998,24.551-137.7537,50.2665c0.1704-3.1453,0.6637-29.0513-27.8176-42.9963
		c-8.1571-3.9944-15.7613-5.3884-22.4702-6.618c-16.8041-3.0811-30.0773-5.5141-47.9083-46.3537
		c-5.8576-13.4139-8.9112-21.5652-8.2775-26.2154c0.489-3.5919,3.5383-6.1285,11.0032-12.0257
		c5.2728-4.1666,12.4944-9.8713,21.1564-18.4502c28.7476-28.4695,21.4786-67.2809,17.1355-90.4698
		c-0.9272-4.9507-1.7278-9.226-1.9875-12.3846c-0.3386-4.1162,4.6169-11.7524,10.355-20.5939
		c5.3167-8.1929,11.5777-17.8501,16.9808-29.2889c1.6428,1.0307,3.4127,1.5463,5.0831,1.6486
		c1.6556,0.1004,3.2786-0.1515,4.8155-0.7118c4.4817-1.6352,8.2211-5.8824,9.8436-11.5739
		c1.4328-2.9926,2.5423-8.925-0.7959-25.1567c5.8885,12.1153,11.7404,19.6957,17.7282,22.9648l0.3349,0.1549
		c4.4891,1.7159,8.7291,1.9264,12.0842,0.7019c1.523-0.5552,2.8643-1.4054,3.9644-2.5432c2.8104-2.9106,3.637-7.2796,2.4295-12.3406
		c6.2157-0.2528,9.8448-3.6689,11.2399-7.25c2.359-6.0541-0.6074-13.3023-7.2187-17.7126
		c-2.3917-2.2597-7.6396-5.1012-23.8078-6.8853c6.6416-0.938,12.2336-2.2094,16.734-3.8499
		c4.3902-1.6004,7.7807-3.5403,10.2069-5.8283l0.2515-0.2716c4.3938-5.4324,5.5984-11.3498,3.2216-15.8289
		c-1.8971-3.5746-5.7942-5.7133-10.9794-6.1332c1.6877-5.9879-0.4379-10.4972-3.4098-12.9332
		c-5.0274-4.121-12.8401-3.5431-19.077,1.3747c-2.8878,1.5724-7.2118,5.6758-13.9122,20.4728
		c2.3003-13.0396,2.0141-22.4754-0.8673-28.5802l-0.1797-0.3228c-3.8028-5.861-9.0552-8.8407-14.0515-7.9687
		c-3.9774,0.7018-7.2273,3.7383-9.2348,8.5379c-5.169-3.4598-10.1185-2.8334-13.3516-0.7653
		c-5.4739,3.5018-7.3487,11.1056-4.605,18.5634c0.6004,3.2343,3.1632,8.6185,15.1542,19.5711
		c-11.6854-6.228-20.7449-8.8797-27.4405-8.032l-0.3619,0.0706c-6.755,1.8029-11.2117,5.8704-11.9311,10.89
		c-0.5737,4.0055,1.314,8.0304,5.2568,11.4261c-4.8922,3.8423-5.8317,8.7379-4.8666,12.4566
		c1.633,6.2908,8.2821,10.4289,16.2238,10.1324c1.8928,0.2495,4.6761,0.0986,9.4444-1.6396
		c3.4415-1.2546,7.9264-3.3443,13.8463-6.698c-9.5367,9.1762-14.8625,16.9659-16.1311,23.5932l-0.0445,0.3674
		c-0.3819,6.9753,2.1064,12.4774,6.6567,14.7179c2.7261,1.3426,5.8932,1.3673,9.1865,0.1544
		c-5.256,11.4271-11.481,21.0347-16.7304,29.1235c-7.2763,11.2121-12.5336,19.3131-11.9183,26.7983
		c0.3018,3.6684,1.1464,8.1764,2.1239,13.3965c4.2391,22.6327,10.6447,56.8358-14.3692,81.6075
		c-1.8642,1.8464-3.6438,3.5381-5.3504,5.1104c-31.4396-97.4437-12.3227-251.1606,73.9779-332.3066
		c53.033-49.8663,128.8667-77.5034,202.811-73.9482c72.8284,3.5073,138.2989,36.1221,189.3328,94.3181
		c61.6889,70.3446,74.1644,153.8725,73.7668,211.5563c-0.3332,48.3999-9.5183,87.2392-13.7875,102.7307
		c-1.8799-1.7185-3.8549-3.59-5.9299-5.6449c-25.014-24.7716-18.6078-58.9743-14.3688-81.607
		c0.9781-5.2201,1.8226-9.7286,2.1245-13.397c0.6152-7.4852-4.6416-15.5862-11.9183-26.7983
		c-5.2026-8.0164-11.363-17.5262-16.5891-28.819c0.5031,0.4017,1.0085,0.7813,1.519,1.1143l0.3217,0.1806
		c4.3411,2.0618,8.5517,2.6033,11.9922,1.645c1.5618-0.4344,2.9655-1.177,4.1511-2.2253c3.0294-2.6819,4.1953-6.9729,3.3874-12.1128
		c6.2164,0.2342,10.1016-2.8876,11.7725-6.3486c2.8253-5.8511,0.4349-13.3091-5.8112-18.223
		c-2.2076-2.4398-7.2172-5.6831-23.1963-8.7263c6.6946-0.4156,12.369-1.2457,16.9839-2.5293
		c4.502-1.2522,8.0338-2.9209,10.6315-5.0121l0.272-0.251c4.8054-5.0722,6.4689-10.8772,4.4499-15.5285
		c-1.6116-3.712-5.3296-6.149-10.4661-6.9732c2.151-5.8376,0.3845-10.4993-2.3878-13.1603
		c-4.6896-4.5017-12.5236-4.5366-19.126-0.1217c-2.8453,1.2717-7.1569,4.7159-14.2723,17.1861
		c0.3743-2.3017,0.7923-4.6281,1.3032-7.0058c0.1897-0.8828,0.1112-1.7538-0.1484-2.5551
		c0.9375-7.0571,0.6136-12.6573-0.9826-16.8639l-0.1539-0.3359c-3.3328-6.1405-8.336-9.5218-13.3852-9.0434
		c-4.0202,0.3885-7.4976,3.1616-9.8744,7.7893c-4.8826-3.8534-9.8658-3.6161-13.2508-1.8072
		c-5.731,3.0629-8.1948,10.4967-6.0428,18.1463c0.3456,3.2713,2.4794,8.8395,13.577,20.6965
		c-11.1625-7.1229-19.9868-10.475-26.7281-10.1537l-0.3663,0.042c-6.8753,1.269-11.6365,4.9755-12.7463,9.9234
		c-0.8851,3.9484,0.6819,8.1086,4.347,11.8022c-5.1777,3.4479-6.4973,8.255-5.8259,12.0378
		c1.1359,6.3992,7.441,11.0448,15.3815,11.3703c1.8674,0.3968,4.6541,0.4641,9.5438-0.8959
		c3.5291-0.9816,8.1636-2.7141,14.3278-5.5945c-10.2252,8.4021-16.1439,15.7514-17.9271,22.2592l-0.0731,0.3629
		c-0.9264,6.9241,1.124,12.604,5.4852,15.1935c3.479,2.0662,7.9204,1.8654,12.5684-0.4758c1.6742,5.992,5.8354,8.7359,9.6416,9.2701
		c1.6427,0.2295,3.2804,0.1054,4.8564-0.3329c4.5959-1.2797,8.6561-5.2214,10.7187-10.7685
		c0.8938-1.5437,1.7599-3.9452,2.0509-8.3878c6.1558,16.5553,14.7726,29.8554,21.7612,40.6244
		c5.7386,8.8415,10.6936,16.4777,10.355,20.5939c-0.2593,3.159-1.0603,7.4344-1.988,12.3851
		c-4.3427,23.1889-11.6116,61.9998,17.1345,90.4693c4.4673,4.4239,8.5473,8.0787,12.1782,11.1573
		c0.0032,0.0028,0.0064,0.0053,0.0095,0.008c3.4063,2.8877,6.4176,5.2688,8.9692,7.2849
		c7.4654,5.8972,10.5146,8.4337,11.0042,12.0257c0.6326,4.6503-2.4214,12.8015-8.278,26.2154
		c-17.8311,40.8396-31.1037,43.2726-47.9083,46.3537c-6.7089,1.2296-14.3126,2.6236-22.4706,6.618
		c-29.7068,14.5458-27.891,42.1223-27.7991,43.289c0.0044,0.056,0.0223,0.1069,0.0286,0.1624
		c-64.6967-25.2902-88.6104-72.4038-143.316-52.5373c-48.4083,17.5795-32.2611,52.4559-26.8857,57.6184
		c36.5089,35.0633,54.2667-7.1841,54.2667-7.1841c9.8672,35.3304,56.785,20.2338,56.785,20.2338
		c26.4391,32.5085,60.9689,12.0148,60.9689,12.0148c12.423,17.2324,26.3129,22.601,38.6098,22.7629
		C651.9359,651.4969,652.6411,660.8752,652.2849,671.0187z M399.7083,560.8618c-2.684-2.4189-5.8339-4.2753-9.2195-5.5289
		c-3.3864-1.2612-6.998-1.9283-10.655-2.1351c-7.3855-0.3936-14.716,0.9176-21.3508,3.9558
		c-6.6921,2.9727-12.6636,7.6064-18.3742,12.7374c-5.7226,5.1339-11.4533,10.6068-17.9296,15.5449
		c-6.4394,4.9384-13.5229,9.5237-21.3384,12.6149c-7.773,3.1198-16.236,4.6415-24.3639,3.8596
		c-0.2148-0.0209-0.4084-0.1667-0.4777-0.3856c-0.0927-0.2927,0.0694-0.6052,0.3621-0.6979
		c7.653-2.4249,14.5963-5.6478,20.9276-9.7637c6.3449-4.0907,12.1234-8.9567,17.8893-14.1097
		c5.7586-5.1479,11.677-10.4509,18.2848-15.289c6.5955-4.8089,13.7624-9.3864,21.7935-12.4126
		c4.0014-1.513,8.2162-2.5541,12.4729-3.0588c2.1276-0.2601,4.2672-0.3787,6.395-0.3629c2.1254,0.0061,4.2431,0.1267,6.3616,0.3995
		c4.2287,0.5468,8.438,1.6373,12.3708,3.4373c3.9229,1.7976,7.5811,4.2816,10.5356,7.4456
		c5.9515,6.27,9.1367,15.0077,8.2028,23.4553c-0.4623,4.1951-2.0002,8.3557-4.7768,11.5787
		c-2.7571,3.2404-6.7291,5.2619-10.7673,5.8058l-0.0079,0.0011c-0.2736,0.0358-0.5355-0.1403-0.6008-0.4146
		c-0.0698-0.293,0.1112-0.5872,0.4042-0.6569c3.7563-0.8943,7.085-3.083,9.2029-6.1305c2.1592-3.0201,3.2012-6.731,3.292-10.4189
		C408.5359,572.8986,405.0975,565.6384,399.7083,560.8618z M231.8828,212.6025c6.9194-2.5224,14.5735,1.0421,17.0959,7.9614
		c2.5224,6.9194-1.042,14.5735-7.9614,17.0959c-6.9193,2.5224-14.5734-1.042-17.0959-7.9614
		C221.399,222.779,224.9634,215.1249,231.8828,212.6025z M637.9383,245.7216c-6.9194,2.5224-14.5734-1.042-17.0959-7.9614
		c-2.5223-6.9194,1.0421-14.5735,7.9614-17.0958c6.9194-2.5224,14.5735,1.042,17.0959,7.9614
		C648.4221,235.5452,644.8577,243.1992,637.9383,245.7216z M458.9507,590.7516c2.1179,3.0475,5.4465,5.2361,9.2029,6.1305
		c0.293,0.0698,0.474,0.3639,0.4042,0.6569c-0.0653,0.2743-0.3272,0.4504-0.6008,0.4146l-0.0079-0.0011
		c-4.0382-0.5439-8.0103-2.5655-10.7673-5.8058c-2.7767-3.223-4.3145-7.3837-4.7768-11.5787
		c-0.9339-8.4476,2.2513-17.1852,8.2028-23.4553c2.9545-3.164,6.6127-5.648,10.5355-7.4456
		c3.9328-1.7999,8.1421-2.8904,12.3708-3.4373c2.1185-0.2728,4.2362-0.3934,6.3616-0.3995c2.1278-0.0157,4.2674,0.1028,6.395,0.3629
		c4.2567,0.5047,8.4715,1.5458,12.4729,3.0588c8.0312,3.0262,15.198,7.6037,21.7935,12.4126
		c6.6078,4.8381,12.5262,10.1411,18.2848,15.289c5.7659,5.153,11.5444,10.019,17.8893,14.1097
		c6.3314,4.1159,13.2746,7.3388,20.9276,9.7637c0.2927,0.0927,0.4548,0.4053,0.362,0.6979
		c-0.0693,0.2188-0.2629,0.3647-0.4777,0.3856c-8.1279,0.7819-16.5909-0.7399-24.3639-3.8596
		c-7.8156-3.0912-14.8991-7.6766-21.3384-12.6149c-6.4763-4.938-12.207-10.4109-17.9296-15.5449
		c-5.7106-5.131-11.6821-9.7647-18.3742-12.7374c-6.6348-3.0382-13.9653-4.3494-21.3508-3.9558
		c-3.657,0.2067-7.2686,0.8739-10.655,2.1351c-3.3855,1.2536-6.5355,3.11-9.2195,5.5289
		c-5.3893,4.7766-8.8277,12.0368-8.633,19.4709C455.7495,584.0207,456.7915,587.7315,458.9507,590.7516z M660.0667,604.1762
		c-6.1432-1.0164-12.2313-2.1877-18.1743-3.4886c-8.0865-1.7701-15.6166-3.9171-22.6839-6.3339
		c1.0469-0.9855,1.6759-2.4003,1.5705-3.9429c-0.0609-0.8987-1.2266-22.1311,22.2781-33.6412
		c6.9314-3.3926,13.5242-4.6019,19.9003-5.7705c4.4462-0.8153,8.8322-1.621,13.2137-3.0436
		c0.0749,0.0636,0.1422,0.1366,0.2205,0.1956c0.3115,1.3998,0.7933,5.2626,0.0097,14.5003
		c-0.7362,8.6785-6.6866,21.1772-12.4407,33.2648C662.6329,598.7051,661.3209,601.4633,660.0667,604.1762z"/>
	<path d="M363.49,509.0685c-1.6041-0.8614-3.3376-1.4407-5.0878-1.7799c-1.7534-0.3567-3.5131-0.4398-5.3112-0.3648
		c-3.5235,0.1932-6.7252,0.9821-9.8787,1.8097c-6.2709,1.7115-12.2021,3.9492-18.1393,6.0158
		c-2.961,1.0497-5.9167,2.0688-8.8745,3.0311c-2.9683,0.9337-5.9388,1.8081-8.9104,2.5955
		c-5.9534,1.5518-11.8157,2.9831-17.6136,4.2044c-5.7917,1.1647-11.7617,2.0643-17.6097,2.1736
		c-1.4652,0.0162-2.9353,0.0084-4.3876-0.1111c-1.4603-0.0836-2.9146-0.2542-4.3429-0.5465
		c-1.4405-0.2621-2.86-0.6403-4.2359-1.1725c-0.6922-0.2581-1.3738-0.5582-2.026-0.9164c-0.6591-0.3334-1.3192-0.7678-1.8613-1.201
		l-0.0767-0.0612c-0.2142-0.1711-0.5266-0.1363-0.6977,0.0779c-0.1168,0.1461-0.1373,0.3385-0.0709,0.5
		c0.695,1.6777,1.832,2.9579,3.088,4.1597c1.2743,1.1685,2.7066,2.1604,4.2101,3.0084c3.0296,1.6502,6.3144,2.8032,9.6407,3.4753
		c3.3285,0.7158,6.6971,1.0295,10.0369,1.0918c3.3405,0.0482,6.653-0.0955,9.9763-0.5509
		c6.6258-0.8455,12.9367-2.7816,18.9279-5.1889c3.004-1.1917,5.9594-2.4435,8.8849-3.72l8.7343-3.7899
		c5.7762-2.5396,11.4967-5.1014,17.2013-7.287c2.8448-1.043,5.7358-2.0085,8.4905-2.4091c2.692-0.3819,5.5678-0.121,8.002,0.914
		c2.4458,1.0261,4.5133,2.9336,5.5667,5.3896c1.0688,2.4293,1.0738,5.3669-0.2462,7.7241
		c-1.2884,2.3891-3.8849,3.9749-6.7664,4.5916c-2.8984,0.6472-6.0373,0.442-9.0745-0.1456l-0.005-0.001
		c-0.2688-0.052-0.5289,0.1238-0.5808,0.3926c-0.0487,0.252,0.1047,0.4968,0.3452,0.5693c3.0526,0.9095,6.3029,1.4871,9.6371,1.0966
		c1.6599-0.1925,3.3314-0.6653,4.8696-1.4999c1.5378-0.8246,2.9271-2.0342,3.9349-3.5373
		c2.0563-3.0137,2.4175-7.0112,1.2498-10.4485C369.3567,513.681,366.708,510.7592,363.49,509.0685z"/>
	<path d="M259.845,541.3395c-3.1934-3.5684-7.3079-6.2214-11.6534-8.0524c-4.3571-1.8484-8.9493-2.976-13.554-3.6563
		c-2.3587-0.324-4.4894-0.5621-6.6759-0.8936c-2.1748-0.3311-4.3313-0.7288-6.4678-1.1846
		c-4.2679-0.9261-8.4375-2.1586-12.4007-3.7506c-7.9099-3.1218-15.0588-8.0261-19.1695-14.8076
		c-2.0729-3.3535-3.3368-7.1399-3.7565-10.9992c-0.0608-0.4791-0.0876-0.9687-0.1215-1.4422
		c-0.0162-0.4565-0.0328-0.911-0.0184-1.3643c0.0225-0.9056,0.0966-1.8043,0.2477-2.6835c0.2986-1.7595,0.8674-3.4353,1.639-4.9733
		c0.7619-1.5482,1.8001-2.9131,2.9613-4.1442c1.1904-1.2112,2.5712-2.2291,4.0824-3.0956c1.5291-0.8413,3.2046-1.4868,4.9837-1.9761
		c0.87-0.2413,1.8492-0.4384,2.7057-0.5623c0.7739-0.1051,1.5305-0.159,2.2699-0.1232c1.4739,0.0836,2.8906,0.496,4.2298,1.2714
		c0.6669,0.3869,1.3187,0.8523,1.9131,1.4195c0.605,0.5521,1.187,1.1703,1.6858,1.871c2.0389,2.7284,3.2146,6.5745,2.5833,9.6026
		c-0.1553,0.7474-0.4317,1.4107-0.8016,2.0056l-0.1403,0.2287l-0.2168,0.2492c-0.1443,0.1675-0.2859,0.3423-0.4441,0.4882
		c-0.303,0.3176-0.6279,0.6016-0.9662,0.8644c-1.353,1.0441-3.0029,1.6151-4.7523,1.5643c-1.7424-0.067-3.5258-0.8489-4.7837-2.234
		c-1.2562-1.3815-1.8408-3.4269-1.4521-5.5513c0.0516-0.2713-0.1265-0.5331-0.3978-0.5847
		c-0.2235-0.0425-0.4422,0.0746-0.5406,0.2675c-0.5373,1.0741-0.8346,2.3131-0.8329,3.5985
		c-0.0135,1.291,0.376,2.5894,0.9926,3.7671c1.2592,2.3712,3.6329,4.0955,6.3229,4.781c2.7004,0.7186,5.7174,0.2476,8.1946-1.0571
		c0.6211-0.3228,1.2198-0.6868,1.7785-1.0924c0.2911-0.1941,0.5529-0.4121,0.8191-0.6292l0.3992-0.3273l0.4203-0.4018
		c1.1317-1.0812,1.9686-2.4209,2.5539-3.795c1.1848-2.7787,1.3174-5.674,1.0265-8.4147c-0.3624-2.737-1.202-5.391-2.5805-7.8183
		c-1.3573-2.4301-3.2315-4.6765-5.6368-6.4153c-2.371-1.7722-5.3114-2.944-8.3056-3.3542c-1.4983-0.2099-3.0033-0.2314-4.465-0.0897
		c-1.3778,0.1331-2.619,0.3287-3.9352,0.6177c-1.2978,0.2711-2.5948,0.6499-3.8664,1.1095
		c-1.2677,0.4838-2.5163,1.0456-3.7282,1.7022c-4.8701,2.5975-8.9265,7.014-11.0787,12.1428
		c-2.2146,5.095-2.5456,10.8719-1.5222,15.9372c0.9534,5.0331,2.9607,9.8521,5.8399,14.0163
		c2.8775,4.1663,6.5617,7.674,10.6328,10.3749c4.0645,2.7245,8.4544,4.768,12.9328,6.2823
		c4.4859,1.513,9.0616,2.5389,13.6417,3.2481c2.2919,0.3443,4.5852,0.6227,6.8788,0.8292c2.2812,0.2042,4.6382,0.3254,6.753,0.4862
		c4.3294,0.3383,8.6199,1.0726,12.6688,2.4625c4.0445,1.375,7.8382,3.4654,10.8856,6.4125
		c6.1891,5.8602,8.5081,15.2952,7.1451,23.9592l-0.0068,0.043c-0.0424,0.2697,0.1418,0.5228,0.4115,0.5652
		c0.2547,0.04,0.495-0.124,0.5566-0.3693c1.1144-4.4898,1.2258-9.1611,0.3542-13.7585
		C265.1798,549.3262,263.0454,544.8974,259.845,541.3395z"/>
	<circle cx="210.3749" cy="565.6352" r="8.3894"/>
	<circle cx="192.3351" cy="555.2338" r="5.3892"/>
	<circle cx="226.132" cy="580.8446" r="5.3892"/>
	<path d="M356.6737,90.1522c3.2469-11.9097,12.8277-22.7649,25.1632-25.4556c3.9431-1.291,7.7805,0.6417,11.3132,2.1792
		c4.8456,2.271,10.4294,3.0837,15.6622,1.7568c7.5467-1.9465,14.1629-6.4252,21.75-8.2622
		c8.4341-1.6497,18.1638-1.8266,25.4687,3.4151c3.1847,2.1584,5.2104,5.7216,8.521,7.6677
		c0.3686-11.4702-5.4264-22.7696-14.8368-29.281c-4.7805-3.1885-11.3598-4.1969-16.5512-1.3845
		c-3.8681,2.0284-6.2115,5.9801-9.9026,8.2366c-2.6201,1.3114-5.3705-0.6037-7.6014-1.8283
		c-3.2197-2.3185-6.8733-4.2591-10.936-4.3136l-4.346,0.6161l-0.001-0.0002c-5.7987,1.014-7.1231,7.5605-11.6226,10.2837
		c-6.3149,1.8329-11.0697-5.1689-17.3897-4.1261c-8.7784,0.2727-15.0005,8.0262-17.5498,15.7855
		c-4.6974,11.5437-3.9727,24.6574,0.3192,36.1409C355.2457,97.834,355.8401,93.9626,356.6737,90.1522z"/>
	<path d="M512.234,66.0475c5.6001,5.2405,5.3974,14.0264,2.3474,20.5592c-2.0378,3.9964-4.3649,8.0377-4.8327,12.5847
		c-0.1577,7.5973,7.5149,13.2491,5.9334,21.0756c-1.7741,9.225-8.2291,16.96-15.6577,22.3864
		c-5.3176,5.1463-9.6389,11.2077-14.3894,16.8589c-4.9165,5.3695-12.1926,9.4507-19.6745,8.1863
		c-4.3014-0.3771-8.6069-0.7496-12.9229-0.938c2.6345,6.5164,8.5271,11.7962,15.2335,13.8518
		c7.3905,1.0082,15.8495-1.3326,20.562-7.4101c2.8795-5.0836,5.6696-10.224,8.6568-15.247
		c3.4183-5.4819,9.1321-9.2724,15.3584-10.8066c7.82-2.0347,15.363-5.9477,20.7169-12.1056
		c4.0814-4.5041,5.8096-11.0516,4.3193-16.9705c-1.576-9.3974-7.6177-17.1923-9.9977-26.317
		c-0.3456-5.3172,2.7945-10.1046,3.7612-15.25c2.0543-8.1372,0.3907-17.6519-5.7457-23.6763
		c-6.0066-5.7446-14.5596-7.9256-22.711-7.5697l0.0015,0.0005c-0.5434,0.0238-1.0853,0.0588-1.6243,0.1048
		c-14.2688,1.7129-24.5168,13.5015-32.0051,24.7723c9.1554-0.18,17.4248-5.4131,26.447-6.8593
		C501.4183,62.0935,507.9796,61.8889,512.234,66.0475z"/>
	<path d="M315.4101,130.5021c8.3268,7.3338,17.8899,13.984,28.7999,16.6677c0.9592-7.5-1.3808-15.9108,3.4947-22.4835
		c4.0511-5.6311,10.5048-8.8486,16.8327-11.2483c-7.5246-4.5283-14.9819-9.457-20.8563-16.0695
		c-3.0723-3.6613-6.0067-8.2299-5.432-13.2304c0.0429-4.8305,2.9201-9.6085,1.3111-14.408
		c-1.8445-2.6628-4.8892-5.4929-8.2841-5.0575h-0.0001c-0.485,0.0622-0.9772,0.191-1.474,0.3964
		c-8.4709,2.2176-12.6188,11.9773-11.7635,20.099c0.2408,3.7867,3.0278,7.014,2.6915,10.8578
		c-3.5664,6.1321-11.7422,8.583-13.8147,15.8025C304.7172,119.2282,310.4064,125.8084,315.4101,130.5021z"/>
	<path d="M366.3481,92.4542c-2.7059,12.3981,6.8138,23.076,17.2722,29.0674c13.3335,7.6217,28.9142,13.5371,44.9688,12.1327
		c1.3178-6.1768-0.1264-13.2767-5.5869-17.2623c-6.2113-3.9457-14.4526-3.6683-21.4837-1.7538
		c-6.9565,0.7843-12.103-5.3746-14.5063-10.7042c-3.2295-9.0022,4.4492-17.1907,3.9801-26.0796
		c-0.553-3.8364-4.9764-5.1479-8.6458-4.5599l0.002,0.0002c-0.5241,0.084-1.033,0.207-1.5129,0.3668
		C372.1474,75.9363,368.2899,85.0076,366.3481,92.4542z"/>
	<path d="M436.0455,68.7804c-5.9228,1.0628-10.6872,4.7747-15.7051,7.7832c-2.9822,2.1496-6.6066,0.7189-9.9254,0.8181
		c-11.7158,1.2007-19.6973,14.1159-17.6778,25.2693c4.3881-1.5473,7.4183-6.0144,12.1485-6.8759
		c5.9355-0.9919,12.2191-2.4717,16.7386-6.7164c2.3094-1.6964,4.6247-4.6257,7.8381-3.7954
		c6.6597,1.9717,12.8062,6.4156,20.0839,5.575c4.0494-0.6924,8.8891-1.5401,11.0802-5.4389
		c1.6995-4.2728-0.7696-9.1489-4.3229-11.6552c-4.9433-3.724-11.3493-6.3345-17.5958-5.5262l0.0002-0.0001
		C437.8158,68.3335,436.9266,68.5187,436.0455,68.7804z"/>
	<path d="M485.0603,93.1988c-7.2928,5.6999-14.7233,11.2271-22.0524,16.8777c-6.0185,4.7895-11.4738,10.7936-13.9407,18.2112
		c7.0266-6.0802,14.3589-12.2623,23.259-15.3585c5.1998-1.6703,10.805-1.0887,16.0447-2.5906
		c6.9444-1.6374,13.6181-5.4552,17.6361-11.4793c3.6024-5.145,4.5157-11.7076,3.9306-17.8433
		c-0.3807-8.3607-9.5269-14.0781-17.3455-13.013l0.0002,0.0002c-5.6004,1.2525-11.0487,4.9623-13.2712,10.3906
		c-1.9409,4.783,1.0097,9.9753,4.7272,12.96C484.3757,91.8451,486.0202,92.5588,485.0603,93.1988z"/>
	<path d="M426.6276,92.7789c-6.5149,2.4438-15.3856,10.1078-10.9461,17.6606c4.6875,4.3601,12.4914,2.6677,17.5785-0.0131
		c2.7274-3.3135,8.0066-7.6063,4.9128-12.2504c-1.6768-3.753-5.6712-6.5381-9.7825-5.8911v-0.0006
		C427.8029,92.3768,427.2133,92.5393,426.6276,92.7789z"/>
	<polygon points="458.3738,91.3049 458.374,91.3054 458.3741,91.3051 	"/>
	<path d="M437.0496,114.9561c-3.5632,6.1453-1.131,13.251-0.5868,19.8004c3.0122-7.1749,9.2649-12.3394,15.2023-17.1864
		c7.5152-6.2318,9.5829-17.2961,6.7089-26.2647c-2.8662,4.0178-4.9675,8.6029-8.3802,12.2229
		C445.578,107.1657,439.4939,109.3709,437.0496,114.9561z"/>
	<path d="M355.1733,131.3383c-3.31,4.0349-1.7314,10.7728,2.929,13.0589c4.9164,2.3559,10.6093,1.8518,15.8267,1.0377
		c5.4995-0.9739,11.8677-3.7112,16.9943-0.2079c4.7804,3.8844,7.5342,9.6652,11.7983,14.05c2.602,2.0173,5.8585,2.9613,9.0605,3.504
		c10.879,1.4745,21.855-1.2746,32.7325,0.1368c1.6427,0.3343,0.7529-0.7304,0.3145-1.2083
		c-10.9634-12.6524-26.1447-20.5513-40.7533-28.2042c-11.1861-5.1904-23.3541-11.4497-36.0032-9.6504l0.0071,0.0039
		c-0.4081,0.058-0.8163,0.1247-1.2254,0.1998C362.3754,125.2515,358.18,127.7937,355.1733,131.3383z"/>
	<path d="M485.9633,151.8634c3.4107-5.3551,6.8943-11.5138,13.1202-13.92c4.8914-1.3911,9.4166-5.8976,8.8218-11.2756
		c0.0272-3.1399-3.1852-4.3165-5.9749-4.2941l0.0001-0.0003c-0.6438,0.0052-1.265,0.0741-1.8188,0.1978
		c-5.6893,0.7116-10.744,3.6096-16.2008,5.1564c-6.4606,2.2935-13.2575,0.9849-19.7755-0.2379
		c-13.9206-0.6954-23.6306,11.095-33.0303,19.3636c10.6525,0.507,18.798,8.1259,28.3169,11.8719
		C468.3194,162.6475,480.7195,160.679,485.9633,151.8634z"/>
	<path d="M317.5449,158.7742c-0.631,12.3341,9.4559,21.3889,12.1998,32.8084c0.26,3.556,0.1213,7.1367,0.4538,10.6937
		c4.4851-1.1171,8.4726-4.4232,13.2977-3.9231c16.869,0.788,30.5428,12.0351,46.3398,16.5722
		c13.2437,4.3685,28.865,3.225,40.0983-5.5122c7.9562-5.787,11.3853-16.6313,8.5357-25.9913
		c-0.575-1.9996-2.0087-3.8095-4.0282-4.4588c-4.7639-0.8341-9.6449-0.7071-14.4031-1.5805
		c-11.2771-2.6901-21.5889-8.9633-29.3783-17.5256c-2.587-3.0113-6.5391-5.0995-10.5879-4.5212
		c-4.8398,1.0701-9.6632,2.224-14.5083,3.2565c-9.7584,1.5685-19.4867-1.9109-27.7131-6.943
		c-4.7955-2.1086-9.4187-6.5417-14.8336-6.0226l0.0006,0.0002C318.147,147.8132,318.0898,154.2183,317.5449,158.7742z"/>
	<path d="M536.0652,146.1967c-4.2039,1.5879-6.907,5.503-9.48,8.9679c-4.4952,6.5144-8.6705,13.2592-13.4893,19.5462
		c-6.4412,8.1213-16.248,13.6689-26.6682,14.2987c-13.5566,1.1556-26.7608-3.6028-38.6942-9.5713
		c-0.5054,1.8229-0.7697,3.7199-0.7135,5.6145c1.165,12.5068,6.2146,24.8561,15.1233,33.8568
		c6.1235,6.6949,15.0389,10.9133,24.1739,10.7502c10.8907-0.4975,22.8657-1.7657,31.0959-9.7449
		c5.4592-5.8036,10.1809-12.2801,15.2277-18.4411c1.8652-2.0336,4.3367-3.4076,6.9311-4.2814
		c7.3907-3.3027,14.7348-8.228,18.1809-15.8297c4.4853-10.0266,1.6582-22.4607-5.8187-30.3038
		c-3.4619-3.6674-8.678-5.9212-13.7228-5.3053l0.0001-0.0004C537.4907,145.841,536.7733,145.9873,536.0652,146.1967z"/>
	<path d="M539.705,134.1791c-1.4229,2.0332-5.054,3.2463-4.8524,6.0583c8.5835,2.1389,17.9224,0.526,25.5394-3.8644
		c5.9283-4.4378,11.1794-9.6955,16.4667-14.8574c4.1846-3.2658,8.4104-6.4848,12.6016-9.7455
		c-6.4131-4.2651-13.0506-8.2403-19.6-12.3148c-5.898-3.368-13.0829-5.8774-19.8323-3.6806
		c-0.8222,0.3401-1.6497,0.7144-2.4672,1.1262l-0.0002,0.0002c-3.5425,1.7844-6.8979,4.2715-8.8331,7.7178
		c1.3504,4.3358,4.681,8.2259,4.9713,12.9799C544.2246,123.2977,543.4138,129.6143,539.705,134.1791z"/>
	<path d="M307.5057,141.5073c1.9577-0.0465,4.2137-0.6447,5.17-2.5217c0.7006-2.7117-1.1591-5.2536-2.6497-7.3335
		c-5.2388-6.0734-8.9809-14.2882-7.5213-22.4469c0.1703-2.8587,2.1895-5.6147,2.5797-8.0887l-0.0026-0.0005
		c-7.2953-6.989-18.6785-7.8036-27.6664-3.8236c-6.7697,2.9529-13.4915,6.287-19.5008,10.5711
		c2.3658,1.6013,5.453,2.0112,7.5575,4.0451c4.5612,4.4752,6.8445,10.6724,11.242,15.2936
		C284.1464,136.2858,295.779,141.6864,307.5057,141.5073z"/>
	<path d="M307.5336,178.4159l0.0011-0.0001c0.5981-0.0504,1.1961-0.1277,1.7925-0.2333c2.6789-0.2759,5.5505-2.0786,5.6305-5.0387
		c0.0116-3.3363-1.3882-6.4635-1.7675-9.7532c-0.5837-6.1185-0.3343-12.5033,2.0167-18.246
		c-3.4714-0.2419-6.9629-0.4712-10.4442-0.5403c-9.8624,1.0785-16.9824,8.431-25.0129,13.4178
		c-0.9085,0.6547-2.7754,1.7058-2.0368,3.059c3.3757,5.2144,8.0257,9.5783,13.4024,12.6819
		C295.9382,176.884,301.7514,178.903,307.5336,178.4159z"/>
	<path d="M544.1059,313.1602c-21.397,1.3311-42.3382,13.1801-52.758,31.9159c-8.3795,15.0668-9.5293,33.9526-3.0397,49.9247
		c8.1731,20.1156,26.9583,34.0345,46.551,43.3922c20.017,9.5603,41.7723,15.4666,63.8758,17.3414
		c9.0593,0.7684,18.5418,0.7927,26.7889-3.0346c6.3567-2.9501,11.7339-8.7552,13.3527-15.3907
		c5.2834-14.0971,2.1395-33.2845-2.499-48.8061c-6.1384-20.5408-17.1877-39.9025-33.3181-54.0239
		C586.9291,320.3578,565.5029,311.8291,544.1059,313.1602z"/>
	<path d="M321.7159,313.1602c-21.397-1.3311-42.8232,7.1975-58.9536,21.3188c-16.1304,14.1214-27.1798,33.4831-33.3181,54.0239
		c-4.6385,15.5218-7.7825,34.7094-2.4988,48.8065c1.619,6.6353,6.9961,12.4402,13.3526,15.3902
		c8.247,3.8273,17.7295,3.803,26.7889,3.0346c22.1035-1.8748,43.8587-7.7811,63.8757-17.3414
		c19.5927-9.3576,38.3779-23.2766,46.551-43.3922c6.4896-15.9721,5.3397-34.8579-3.0397-49.9247
		C364.054,326.3404,343.1129,314.4913,321.7159,313.1602z"/>
	<path d="M307.1464,294.0023l-1.0496,0.1577c-3.8323,0.5988-6.454,4.1898-5.8557,8.0226c0.5408,3.4652,3.5291,5.9408,6.9299,5.9408
		c0.3599,0,0.7251-0.0281,1.0917-0.0851l0.9239-0.1403c3.8377-0.563,6.4917-4.1308,5.9282-7.9684
		C314.5513,296.0929,310.9859,293.4325,307.1464,294.0023z"/>
	<path d="M319.8352,463.1591c0.8484,0,1.7113-0.1548,2.55-0.4818l0.95-0.3725c3.6089-1.4211,5.3826-5.4987,3.9615-9.108
		c-1.4206-3.6074-5.4972-5.3787-9.1071-3.9615l-0.9084,0.357c-3.6132,1.4095-5.4,5.4813-3.991,9.0945
		C314.3728,461.4614,317.0254,463.1591,319.8352,463.1591z"/>
	<path d="M347.6831,449.7704c1.2165,0,2.4494-0.3173,3.5716-0.9819l0.907-0.5417c3.3211-2.0044,4.3886-6.321,2.3846-9.6411
		c-2.0034-3.3211-6.3205-4.3871-9.6411-2.3856l-0.8073,0.4837c-3.3375,1.9764-4.4408,6.2832-2.4644,9.6207
		C342.9453,448.5399,345.283,449.7704,347.6831,449.7704z"/>
	<path d="M387.6346,368.6823c0.1756,3.7632,3.2814,6.6963,7.0097,6.6963c0.1103,0,0.2211-0.0029,0.3328-0.0078
		c3.8739-0.1809,6.8685-3.4681,6.6876-7.3425c-0.0169-0.3628-0.0363-0.7246-0.058-1.0873
		c-0.2317-3.8725-3.5755-6.8105-7.4291-6.5918c-3.872,0.2322-6.823,3.5581-6.5913,7.4296
		C387.6041,368.0797,387.6206,368.3815,387.6346,368.6823z"/>
	<path d="M389.4514,405.6175c2.7503,0,5.3618-1.6262,6.4854-4.3233c0.1422-0.3405,0.2815-0.683,0.4184-1.0264
		c1.4366-3.6026-0.3192-7.6879-3.9218-9.1245c-3.6045-1.4395-7.6884,0.3192-9.1245,3.9218
		c-0.1107,0.2776-0.223,0.5524-0.3371,0.8271c-1.4917,3.5803,0.2012,7.6918,3.7816,9.1835
		C387.6361,405.4434,388.5512,405.6175,389.4514,405.6175z"/>
	<path d="M290.2914,472.2333c0.521,0,1.0501-0.058,1.5793-0.1799l0.9916-0.2293c3.7777-0.8794,6.127-4.6541,5.2477-8.4318
		c-0.8794-3.7767-4.6537-6.1236-8.4323-5.2472l-0.9529,0.2196c-3.7801,0.8687-6.1401,4.6377-5.2713,8.4173
		C284.2007,470.0325,287.0923,472.2333,290.2914,472.2333z"/>
	<path d="M380.4803,342.0219c1.261,2.3769,3.6935,3.7322,6.2092,3.7322c1.1101,0,2.2371-0.2641,3.2857-0.8203
		c3.426-1.8187,4.7301-6.0695,2.9119-9.496l-0.5267-0.9771c-1.8729-3.3965-6.143-4.6309-9.541-2.759
		c-3.396,1.8729-4.6314,6.144-2.7585,9.5405L380.4803,342.0219z"/>
	<path d="M259.7416,476.8642c0.1775,0,0.357-0.0068,0.5374-0.0203l1.0167-0.0784c3.8667-0.3047,6.7539-3.6867,6.4491-7.5534
		c-0.3047-3.8657-3.6862-6.7379-7.5529-6.4486l-0.9732,0.0745c-3.8676,0.2931-6.7655,3.6655-6.4728,7.5331
		C253.0249,474.0588,256.1032,476.8642,259.7416,476.8642z"/>
	<path d="M212.4954,418.2894c0.3497,0.0513,0.697,0.0764,1.0404,0.0764c3.4222,0,6.4201-2.5046,6.9377-5.9911l0.1422-0.9277
		c0.6027-3.8309-2.0146-7.4257-5.846-8.0284c-3.8309-0.6036-7.4262,2.0132-8.0294,5.846l-0.1596,1.0457
		C206.0105,414.147,208.6587,417.7196,212.4954,418.2894z"/>
	<path d="M367.8286,418.39l-0.6612,0.6762c-2.7227,2.7619-2.6908,7.209,0.0716,9.9313c1.3679,1.3485,3.1494,2.0209,4.9294,2.0209
		c1.8143,0,3.6277-0.6985,5.0019-2.0925l0.7328-0.7478c2.7024-2.7822,2.6381-7.2284-0.1437-9.9313
		C374.9787,415.5459,370.533,415.6097,367.8286,418.39z"/>
	<path d="M218.7095,388.0099c0.771,0.2709,1.5575,0.3995,2.3309,0.3995c2.8969,0,5.6085-1.8061,6.6247-4.6938l0.3236-0.9122
		c1.3021-3.6539-0.6037-7.6714-4.257-8.9736c-3.6519-1.3011-7.671,0.6027-8.9731,4.2565l-0.3429,0.9684
		C213.1286,382.7134,215.0508,386.7224,218.7095,388.0099z"/>
	<path d="M278.0016,317.9328c1.1014,0,2.2182-0.2602,3.2606-0.8078c0.2694-0.1413,0.5384-0.2815,0.8087-0.4189
		c3.4555-1.7616,4.8288-5.9911,3.0671-9.4466c-1.7612-3.4555-5.9921-4.8302-9.4461-3.0676
		c-0.3217,0.1645-0.6429,0.3318-0.9626,0.5002c-3.4338,1.8042-4.7543,6.0501-2.9506,9.4834
		C273.0355,316.5659,275.4763,317.9328,278.0016,317.9328z"/>
	<path d="M253.1565,336.1653c1.78,0,3.5614-0.6723,4.9294-2.0209l0.682-0.6675c2.7793-2.7058,2.8383-7.1519,0.133-9.9303
		c-2.7058-2.7793-7.152-2.8383-9.9308-0.1325l-0.7439,0.7275c-2.7624,2.7223-2.7943,7.1694-0.0716,9.9313
		C249.5288,335.4668,251.3421,336.1653,253.1565,336.1653z"/>
	<path d="M339.5062,295.2938c-3.7772-0.8977-7.5573,1.4463-8.4488,5.2201c-0.8914,3.7747,1.4458,7.5583,5.2206,8.4492
		c0.2955,0.0696,0.5906,0.1412,0.8847,0.2148c0.5703,0.1422,1.1411,0.2099,1.7036,0.2099c3.1484,0,6.0133-2.1331,6.809-5.3255
		c0.9379-3.7641-1.3524-7.5747-5.1161-8.5131C340.209,295.4621,339.8578,295.377,339.5062,295.2938z"/>
	<path d="M226.2286,471.5426c0.3628,0.1964,0.728,0.387,1.0956,0.5698c0.0603,0.0301,0.1228,0.0503,0.1836,0.0785
		c0.0446,0.0239,0.0884,0.0487,0.1332,0.0724c1.0472,0.5543,2.1718,0.8174,3.28,0.8174c2.5176,0,4.9521-1.3582,6.2126-3.738
		c1.8144-3.4285,0.5069-7.6782-2.9211-9.493l-0.3033-0.1645c-0.2251-0.1256-0.4546-0.2354-0.6867-0.3339
		c-0.1027-0.0536-0.2062-0.1052-0.3083-0.1605c-3.4115-1.8487-7.6734-0.5785-9.5192,2.8326
		C221.5493,465.4344,222.8175,469.6968,226.2286,471.5426z"/>
	<path d="M361.6924,320.6154c0.2414,0.1751,0.4818,0.3521,0.7202,0.5311c1.2629,0.9461,2.7401,1.4027,4.2053,1.4027
		c2.1365,0,4.2464-0.9713,5.6259-2.8132c2.3256-3.1044,1.6939-7.5051-1.41-9.8307c-0.2936-0.2196-0.5882-0.4373-0.8847-0.653
		c-3.1382-2.2773-7.5292-1.5836-9.8099,1.5536C357.8596,313.9433,358.5547,318.3352,361.6924,320.6154z"/>
	<path d="M230.4987,359.435c1.1376,0.6888,2.3919,1.0167,3.6306,1.0167c2.3759,0,4.6943-1.2063,6.0143-3.3868l0.4919-0.8058
		c2.0339-3.3027,1.0061-7.6289-2.2961-9.6633c-3.3032-2.0344-7.6284-1.0061-9.6628,2.2957l-0.548,0.8987
		C226.1197,353.1082,227.181,357.4267,230.4987,359.435z"/>
	<path d="M215.8513,433.5646c-1.5073-0.181-2.9575,0.1345-4.1961,0.8098c-3.5151,0.9978-5.7123,4.5538-4.9526,8.185
		c0.0764,0.3667,0.1557,0.7323,0.2385,1.0951c0.741,3.2572,3.636,5.4658,6.8414,5.4658c0.5156,0,1.0404-0.0571,1.5643-0.1761
		c1.4927-0.3399,2.7599-1.1363,3.7005-2.2031c1.5844-1.1385,2.692-2.9235,2.8966-5.0176l0.0377-0.3454
		C222.4465,437.527,219.7016,434.0289,215.8513,433.5646z"/>
	<path d="M638.0594,473.0807c1.1116,0,2.2386-0.2641,3.2887-0.8223c0.0415-0.0219,0.0824-0.045,0.1238-0.0672
		c0.061-0.0283,0.1237-0.0486,0.1843-0.0788c0.3676-0.1828,0.7328-0.3734,1.0956-0.5698c3.411-1.8458,4.6797-6.1082,2.8335-9.5192
		c-1.8463-3.4101-6.1086-4.6822-9.5192-2.8326c-0.1019,0.0551-0.2051,0.1065-0.3076,0.16
		c-0.2323,0.0986-0.4621,0.2085-0.6874,0.3343l-0.312,0.1693c-3.425,1.8187-4.7272,6.0704-2.9075,9.4959
		C633.1131,471.7264,635.5452,473.0807,638.0594,473.0807z"/>
	<path d="M499.0312,309.2523c-0.2965,0.2157-0.5911,0.4334-0.8847,0.653c-3.1039,2.3256-3.7356,6.7263-1.41,9.8307
		c1.3795,1.8419,3.4894,2.8132,5.6259,2.8132c1.4651,0,2.9424-0.4566,4.2053-1.4027c0.2385-0.179,0.4789-0.356,0.7202-0.5311
		c3.1378-2.2802,3.8328-6.6721,1.5532-9.8094C506.5618,307.6697,502.1708,306.9732,499.0312,309.2523z"/>
	<path d="M485.6714,395.0652c-1.4366-3.6026-5.5229-5.3613-9.1245-3.9218c-3.6026,1.4366-5.3584,5.5219-3.9218,9.1245
		c0.1369,0.3434,0.2762,0.6859,0.4184,1.0264c1.1236,2.6971,3.7351,4.3233,6.4854,4.3233c0.9001,0,1.8153-0.1741,2.6981-0.5417
		c3.5803-1.4917,5.2733-5.6032,3.7816-9.1835C485.8944,395.6176,485.7822,395.3428,485.6714,395.0652z"/>
	<path d="M488.5074,342.0093l0.4247-0.7894c1.8608-3.4023,0.6104-7.6695-2.7929-9.5308c-3.4033-1.8593-7.6705-0.6095-9.5308,2.7939
		l-0.5224,0.9693c-1.8105,3.4294-0.4977,7.6782,2.9322,9.4892c1.0457,0.5514,2.167,0.8136,3.2727,0.8136
		C484.8114,345.7551,487.2483,344.394,488.5074,342.0093z"/>
	<path d="M501.7413,428.9975c2.7624-2.7223,2.7943-7.1694,0.0716-9.9313l-0.6612-0.6762c-2.7034-2.7822-7.1495-2.8451-9.9308-0.1432
		c-2.7817,2.7029-2.8461,7.149-0.1436,9.9313l0.7328,0.7478c1.3742,1.394,3.1876,2.0925,5.0019,2.0925
		C498.5919,431.0184,500.3734,430.3461,501.7413,428.9975z"/>
	<path d="M608.7014,476.8449c0.1804,0.0135,0.3594,0.0203,0.5379,0.0203c3.6374,0,6.7161-2.8064,6.9952-6.4932
		c0.2926-3.8676-2.6052-7.24-6.4728-7.5331l-0.9732-0.0745c-3.8691-0.2922-7.2487,2.582-7.5529,6.4486
		c-0.3047,3.8667,2.5825,7.2487,6.4491,7.5534L608.7014,476.8449z"/>
	<path d="M516.8182,448.2467l0.9069,0.5417c1.1227,0.6656,2.3551,0.9819,3.5717,0.9819c2.4001,0,4.7378-1.2315,6.0496-3.4459
		c1.9764-3.3375,0.8731-7.6443-2.4644-9.6207l-0.8073-0.4837c-3.322-2.0035-7.6376-0.9355-9.6411,2.3856
		C512.4296,441.9258,513.4971,446.2423,516.8182,448.2467z"/>
	<path d="M545.6451,462.3049l0.95,0.3725c0.8387,0.327,1.7012,0.4818,2.55,0.4818c2.8093,0,5.4624-1.6978,6.5449-4.4723
		c1.409-3.6132-0.3778-7.685-3.991-9.0945l-0.9084-0.357c-3.6069-1.4211-7.6859,0.3531-9.1071,3.9615
		C540.2625,456.8063,542.0363,460.8838,545.6451,462.3049z"/>
	<path d="M577.1096,472.0534c0.5292,0.1219,1.0583,0.1799,1.5793,0.1799c3.1992,0,6.0907-2.2008,6.838-5.4513
		c0.8688-3.7796-1.4912-7.5486-5.2713-8.4173l-0.9529-0.2196c-3.7738-0.8803-7.552,1.4695-8.4323,5.2472
		c-0.8794,3.7777,1.47,7.5524,5.2476,8.4318L577.1096,472.0534z"/>
	<path d="M561.834,294.0023c-3.8391-0.5678-7.4049,2.0896-7.9684,5.9272c-0.5635,3.8376,2.0905,7.4054,5.9282,7.9684l0.9238,0.1403
		c0.3666,0.0571,0.7314,0.0851,1.0917,0.0851c3.4009,0,6.3892-2.4756,6.9299-5.9408c0.5983-3.8328-2.0233-7.4238-5.8557-8.0226
		L561.834,294.0023z"/>
	<path d="M648.3641,411.447l0.1422,0.9277c0.5176,3.4865,3.5151,5.9911,6.9377,5.9911c0.343,0,0.6907-0.0251,1.0405-0.0764
		c3.8367-0.5698,6.4849-4.1424,5.9146-7.9791l-0.1596-1.0457c-0.6036-3.8328-4.1942-6.4516-8.0294-5.846
		C650.3787,404.0213,647.7614,407.6161,648.3641,411.447z"/>
	<path d="M586.9094,316.7061c0.2699,0.1374,0.5393,0.2776,0.8087,0.4189c1.0424,0.5485,2.1592,0.8078,3.2606,0.8078
		c2.5254,0,4.9661-1.3669,6.2228-3.7574c1.8042-3.4333,0.4832-7.6792-2.9506-9.4834c-0.3197-0.1683-0.6404-0.3357-0.9626-0.5002
		c-3.4565-1.7616-7.6849-0.3879-9.4461,3.0676C582.0806,310.7151,583.4538,314.9445,586.9094,316.7061z"/>
	<path d="M529.4741,295.2938c-0.3516,0.0832-0.7033,0.1683-1.053,0.2554c-3.7636,0.9384-6.054,4.749-5.116,8.5131
		c0.7961,3.1934,3.6601,5.3255,6.809,5.3255c0.562,0,1.1338-0.0677,1.7036-0.2099c0.2941-0.0735,0.5892-0.1451,0.8847-0.2148
		c3.7748-0.891,6.112-4.6745,5.2205-8.4492C537.0314,296.7401,533.2532,294.399,529.4741,295.2938z"/>
	<path d="M610.894,334.1444c1.3679,1.3485,3.1494,2.0209,4.9294,2.0209c1.8143,0,3.6277-0.6985,5.0019-2.0925
		c2.7227-2.7619,2.6908-7.209-0.0716-9.9313l-0.7439-0.7275c-2.7779-2.7048-7.2245-2.6487-9.9308,0.1325
		c-2.7053,2.7784-2.6464,7.2245,0.133,9.9303L610.894,334.1444z"/>
	<path d="M467.3727,366.941c-0.0218,0.3628-0.0411,0.7246-0.058,1.0873c-0.1809,3.8744,2.8137,7.1617,6.6876,7.3425
		c0.1117,0.0049,0.2225,0.0078,0.3328,0.0078c3.7279,0,6.8342-2.9331,7.0098-6.6963c0.014-0.3008,0.0305-0.6027,0.0484-0.9035
		c0.2312-3.8715-2.7194-7.1974-6.5914-7.4296C470.9327,360.1296,467.6043,363.0685,467.3727,366.941z"/>
	<path d="M640.9916,382.8034l0.3236,0.9122c1.0162,2.8886,3.7278,4.6938,6.6247,4.6938c0.7734,0,1.5599-0.1287,2.3309-0.3995
		c3.6587-1.2876,5.5809-5.2965,4.2938-8.9552l-0.343-0.9684c-1.3026-3.6538-5.3207-5.5596-8.9731-4.2565
		C641.5952,375.132,639.689,379.1496,640.9916,382.8034z"/>
	<path d="M628.8362,357.0639c1.3205,2.1805,3.6384,3.3868,6.0143,3.3868c1.2387,0,2.4934-0.3279,3.6306-1.0167
		c3.3177-2.0083,4.3789-6.3268,2.3701-9.6449l-0.548-0.8987c-2.0344-3.3008-6.3597-4.3291-9.6628-2.2956
		c-3.3022,2.0344-4.3301,6.3606-2.2961,9.6633L628.8362,357.0639z"/>
	<path d="M649.9335,446.7418c0.9406,1.0665,2.2075,1.8626,3.7,2.2025c0.5244,0.119,1.0482,0.1761,1.5643,0.1761
		c3.2054,0,6.1003-2.2086,6.8414-5.4658c0.0827-0.3628,0.162-0.7284,0.2385-1.0951c0.76-3.6326-1.4392-7.1899-4.9567-8.1861
		c-1.2429-0.6765-2.6985-0.9911-4.2117-0.8068c-3.8498,0.476-6.5846,3.9818-6.1086,7.8311l0.0334,0.3057
		C647.2333,443.806,648.3433,445.5994,649.9335,446.7418z"/>
	<path d="M463.89,282.5421c0.3582-12.2385-31.6999-44.9018-31.6999-44.9018s-30.9848,34.4049-30.9848,44.1868
		s31.6999,45.5618,31.6999,45.5618S463.5319,294.7806,463.89,282.5421z"/>
	<path d="M546.9533,748.2329c0,5.8224,18.8685,27.1194,18.8685,27.1194s18.2296-19.4092,18.4427-26.6937
		c0.2132-7.2846-18.8684-26.7266-18.8684-26.7266S546.9533,742.4106,546.9533,748.2329z"/>
	<path d="M279.5342,748.2329c0,5.8224,18.8684,27.1194,18.8684,27.1194s18.2296-19.4092,18.4428-26.6937
		c0.2132-7.2846-18.8684-26.7266-18.8684-26.7266S279.5342,742.4106,279.5342,748.2329z"/>
	<path d="M526.082,243.9561c-0.1635-1.3766-1.1493-2.4137-2.9298-3.0811c-16.1395-6.0607-38.4389,21.7306-47.324,44.3154
		l0.9181,0.3715c0.7768-1.8671,8.558-7.1345,16.7964-12.7116C508.3757,262.8087,526.8361,250.3128,526.082,243.9561z"/>
	<path d="M555.2629,253.3872c-17.504-2.8635-53.035,20.1595-58.791,34.9375l-0.7899,2.0287l1.5894-1.4869
		c5.5224-5.1639,30.3728-13.588,49.8659-11.5478c10.9717,1.1464,17.8378-5.2646,18.7225-11.8864
		C566.4828,260.7713,564.0807,254.8199,555.2629,253.3872z"/>
	<path d="M448.0986,386.111c1.0236,6.1759,2.5507,12.3131,4.9325,18.1895c2.226,5.9223,5.1992,11.5943,8.4429,17.0943
		c1.6313,2.7472,3.5184,5.3789,5.3144,8.0285c1.9707,2.5726,3.9778,5.1139,6.1168,7.567c0.0999,0.1141,0.2751,0.1675,0.4409,0.121
		c0.2104-0.0589,0.3264-0.2555,0.2588-0.4391l-0.0059-0.0161c-1.0841-2.947-2.3606-5.7798-3.5632-8.6288l-3.4443-8.5601
		c-0.5183-1.439-1.0453-2.8707-1.6097-4.2865l-0.8289-2.128l-0.7159-2.1591l-1.4797-4.2914
		c-0.5248-1.4194-0.8909-2.8786-1.3441-4.3131c-1.8507-5.7319-3.3141-11.517-4.778-17.3153
		c-1.4095-5.8114-2.2849-11.7173-2.7254-17.6609c-0.3134-5.946-0.1278-11.9169,0.5768-17.8535
		c0.6686-5.9403,1.8831-11.8489,3.6626-17.6412c1.7432-5.8017,4.0506-11.4898,6.8827-16.9908
		c1.4423-2.7385,2.9921-5.4409,4.707-8.0669c1.7037-2.6255,3.554-5.2093,5.6381-7.6017l0.0151-0.0173
		c0.1227-0.1418,0.1024-0.3443-0.052-0.4651c-0.1629-0.1273-0.4131-0.1154-0.5591,0.0267
		c-4.7187,4.5927-8.5429,9.7781-11.9352,15.174c-3.3497,5.4162-6.1989,11.0869-8.4901,16.9425
		c-2.2595,5.8639-3.9565,11.906-5.0938,18.038c-1.0947,6.1371-1.6546,12.3553-1.6902,18.5855
		c0.0619,3.1096,0.0325,6.2361,0.3427,9.3422C447.2684,379.9072,447.7055,383.002,448.0986,386.111z"/>
	<path d="M393.3173,436.6728c-0.05,0.1368,0.0007,0.2921,0.1392,0.384c0.176,0.1168,0.4271,0.0869,0.5609-0.0665
		c2.1389-2.4531,4.1461-4.9944,6.1168-7.567c1.796-2.6496,3.6831-5.2813,5.3144-8.0285c3.2437-5.5,6.2169-11.172,8.4429-17.0943
		c2.3818-5.8764,3.9089-12.0136,4.9325-18.1895c0.3931-3.1089,0.8303-6.2038,0.9842-9.3256
		c0.3102-3.1061,0.2808-6.2326,0.3427-9.3422c-0.0356-6.2303-0.5954-12.4485-1.6902-18.5855
		c-1.1373-6.132-2.8344-12.1741-5.0938-18.038c-2.2912-5.8556-5.1405-11.5263-8.4901-16.9425
		c-3.3923-5.3959-7.2165-10.5813-11.9352-15.174c-0.1364-0.132-0.3693-0.1539-0.5344-0.0445
		c-0.1741,0.1154-0.208,0.3321-0.0757,0.4839l0.0142,0.0163c2.0841,2.3924,3.9343,4.9762,5.638,7.6017
		c1.7148,2.626,3.2647,5.3283,4.707,8.0669c2.832,5.501,5.1394,11.1891,6.8827,16.9908c1.7794,5.7924,2.994,11.701,3.6625,17.6412
		c0.7047,5.9366,0.8903,11.9075,0.5768,17.8535c-0.4405,5.9436-1.3159,11.8495-2.7254,17.6609
		c-1.4639,5.7984-2.9273,11.5835-4.778,17.3153c-0.4532,1.4345-0.8192,2.8937-1.3441,4.3131l-1.4798,4.2914l-0.7159,2.1591
		l-0.8289,2.128c-0.5645,1.4158-1.0915,2.8475-1.6097,4.2865l-3.4443,8.5601c-1.2026,2.849-2.4791,5.6818-3.5632,8.6288
		L393.3173,436.6728z"/>
	<path d="M392.2336,285.5618l0.9181-0.3715c-8.8846-22.5839-31.1855-50.3694-47.324-44.3154
		c-1.7805,0.6675-2.7663,1.7045-2.9298,3.0811c-0.7541,6.3568,17.7062,18.8526,32.5393,28.8941
		C383.6755,278.4273,391.4568,283.6947,392.2336,285.5618z"/>
	<path d="M373.2978,290.3533l-0.7899-2.0287c-5.7555-14.7779-41.2836-37.7855-58.791-34.9375
		c-8.8178,1.4327-11.2198,7.3841-10.5968,12.045c0.8847,6.6208,7.7479,13.0395,18.7225,11.8864
		c19.4892-2.0364,44.3435,6.3839,49.8658,11.5478L373.2978,290.3533z"/>
	<path d="M556.3453,147.922c0.1906,2.5944,3.6678,3.2181,5.238,4.8849c3.9948,3.6738,5.577,9.3331,5.8564,14.6066
		c0.3684,4.3793-2.1541,8.3752-2.8091,12.514c2.2262,2.8889,5.6215,4.7126,9.0939,5.8696l0.0002,0.0002
		c0.8013,0.267,1.6067,0.4985,2.4028,0.6994c6.4554,1.1063,12.6814-2.1425,17.6177-6.0039
		c5.437-4.5932,10.9677-9.1075,16.2549-13.8565c-4.2615-2.4187-8.549-4.7946-12.805-7.2188
		c-5.5157-4.0085-11.011-8.1092-17.0155-11.3711C572.6396,145.053,563.8975,144.825,556.3453,147.922z"/>
</g>
</svg>
